<?xml version="1.0" encoding="utf-8"?>
<!-- Generator: Adobe Illustrator 16.1.0, SVG Export Plug-In . SVG Version: 6.00 Build 0)  -->
<!DOCTYPE svg PUBLIC "-//W3C//DTD SVG 1.1//EN" "http://www.w3.org/Graphics/SVG/1.1/DTD/svg11.dtd">
<svg version="1.1" id="Ebene_1" xmlns="http://www.w3.org/2000/svg" xmlns:xlink="http://www.w3.org/1999/xlink" x="0px" y="0px"
	 width="208.784px" height="67.168px" viewBox="0 0 208.784 67.168" enable-background="new 0 0 208.784 67.168"
	 xml:space="preserve">
<g>
	<path fill="#FF0000" d="M50.966,20.984c-0.251,1.508-1.65,1.723-2.654,1.723h-5.954c-0.682,0-1.436,0.357-2.116,0.861l-2.547,1.865
		c-0.61,0.43-1.076,0.789-1.184,1.469c-0.107,0.682,0.215,1.041,0.682,1.471l1.471,1.436c0.502,0.502,1.111,0.861,1.793,0.861h2.116
		c0.144,0,0.287,0,0.467,0.035h0.107c0.718,0.072,1.291,0.287,1.471,0.934c0.036,0.035,0.036,0.107,0.036,0.178
		c0,0.072,0.035,0.109,0.035,0.18v0.072c0,0.072,0,0.145-0.035,0.215v0.107c0,0.037-0.036,0.072-0.036,0.107
		c-0.036,0.217-0.107,0.359-0.18,0.504c-0.358,0.752-1.076,1.004-1.865,1.074c-0.071,0.037-0.179,0.037-0.287,0.037h-0.287h-1.147
		h-0.502c-0.682,0-1.435,0.357-2.116,0.862l-2.547,1.863c-0.609,0.432-1.076,0.789-1.184,1.471l-0.286,1.615
		c-0.144,0.682,0.215,1.039,0.681,1.471l1.435,1.471c0.538,0.502,1.148,0.861,1.829,0.861h5.201l0.322-1.723
		c0.181-1.148,0.79-1.793,2.081-1.793c1.292,0,1.686,0.645,1.507,1.793l-0.61,3.443c-0.286,1.471-1.542,1.721-2.69,1.721H38.52
		c-2.009,0-2.834-0.035-4.197-1.363l-2.188-2.115c-1.398-1.363-1.614-2.402-1.22-4.52l0.072-0.502
		c0.395-2.115,0.968-3.156,2.833-4.52l2.439-1.758l-1.794-1.758c-1.255-1.219-1.578-2.188-1.363-3.873
		c0-0.035,0.037-0.107,0.037-0.18s0.035-0.143,0.071-0.215v-0.072c0.395-1.506,1.04-2.402,2.618-3.551l2.941-2.115
		c1.829-1.328,2.69-1.363,4.698-1.363h5.453C50.069,19.264,51.217,19.514,50.966,20.984z"/>
	<path fill="#FF0000" d="M77.65,19.299h0.216c1.291,0,1.722,0.609,1.542,1.793l-1.829,10.33h10.258l1.829-10.33
		c0.18-1.184,0.897-1.793,2.188-1.793s1.722,0.609,1.542,1.793l-4.304,24.283c-0.18,1.148-0.897,1.793-2.188,1.793
		s-1.722-0.645-1.542-1.793l1.829-10.365H76.934l-1.83,10.365c-0.18,1.148-0.896,1.793-2.188,1.793s-1.722-0.645-1.543-1.793
		l3.981-22.488h-2.331c-0.933,0-1.686-0.539-1.471-1.795c0.216-1.326,1.184-1.793,2.116-1.793H77.65z"/>
	<path fill="#FF0000" d="M133.604,24.105c-0.107,0.682-0.646,1.363-1.614,1.471c-0.681,0.072-1.184-0.359-1.613-0.754l-1.399-1.363
		c-0.538-0.502-1.04-0.752-2.009-0.752h-2.689c-1.112,0-1.687,0.287-2.547,0.932c-1.147,0.861-1.507,1.328-1.614,2.045l-0.144,0.682
		c-0.107,0.717,0.071,1.184,0.896,2.045c0.646,0.645,3.443,2.834,3.443,2.834s3.229,2.654,4.879,4.016
		c1.649,1.363,2.188,2.404,1.793,4.664l-0.144,0.824c-0.395,2.26-1.112,3.121-3.192,4.627c-2.045,1.506-2.834,1.793-5.021,1.793
		h-2.475c-2.188,0-2.798-0.502-4.341-2.008c-0.035-0.035-0.071-0.072-0.107-0.107l-1.075-1.076
		c-0.539-0.537-1.076-0.969-0.933-1.865c0.106-0.646,0.646-1.326,1.613-1.436c0.682-0.07,1.184,0.359,1.614,0.754l1.399,1.363
		c0.646,0.646,1.111,0.934,2.188,0.934h2.727c1.075,0,1.686-0.287,2.547-0.934c1.146-0.861,1.47-1.328,1.613-2.045l0.18-1.076
		c0.143-0.717,0.071-1.219-0.825-2.045c-0.825-0.68-6.6-5.379-8.357-6.85c-1.65-1.363-2.224-2.367-1.793-4.627l0.071-0.467
		c0.395-2.26,1.111-3.121,3.192-4.627c2.044-1.506,2.798-1.793,4.985-1.793h2.476c2.115,0,2.762,0.465,4.16,1.828l1.185,1.148
		C133.245,22.777,133.748,23.209,133.604,24.105z"/>
	<path fill="#FF0000" d="M176.645,24.572l-3.623,20.803c-0.179,1.148-0.896,1.793-2.188,1.793h-0.072
		c-1.291,0-1.686-0.645-1.507-1.793l3.659-20.803l-0.682-1.723h-1.542l-1.255,1.723l-1.185,7.029
		c-0.216,1.113-0.933,1.793-2.224,1.793s-1.722-0.68-1.543-1.793l1.22-7.029l-0.681-1.723h-1.543l-1.256,1.723l-3.657,20.803
		c-0.216,1.148-0.897,1.793-2.188,1.793h-0.072c-1.291,0-1.686-0.645-1.506-1.793l3.658-20.66l-0.717-1.865h-1.291
		c-0.934,0-1.687-0.502-1.472-1.793s1.185-1.793,2.116-1.793h1.687c1.22,0,1.9,0.25,1.9,1.541h0.072
		c0.322-0.789,0.753-1.184,1.363-1.361h0.035c0.144-0.072,0.287-0.109,0.431-0.145h0.036c0.251-0.035,0.502-0.035,0.753-0.035h2.833
		c1.22,0,1.901,0.25,1.901,1.541h0.072c0.502-1.291,1.398-1.541,2.618-1.541h2.834c1.255,0,1.542,0.215,1.973,1.291l0.86,2.188
		C176.788,23.531,176.824,23.604,176.645,24.572z"/>
</g>
<g>
	<path fill="#FF0000" d="M208.784,67.168H0V0h208.784V67.168z M7.173,59.994h194.438V7.174H7.173V59.994z"/>
</g>
</svg>
