<?xml version="1.0" encoding="utf-8"?>
<!-- Generator: Adobe Illustrator 15.1.0, SVG Export Plug-In . SVG Version: 6.00 Build 0)  -->
<!DOCTYPE svg PUBLIC "-//W3C//DTD SVG 1.1//EN" "http://www.w3.org/Graphics/SVG/1.1/DTD/svg11.dtd">
<svg version="1.1" id="Layer_1" xmlns="http://www.w3.org/2000/svg" xmlns:xlink="http://www.w3.org/1999/xlink" x="0px" y="0px"
	 width="1360px" height="768px" viewBox="0 0 1360 768" enable-background="new 0 0 1360 768" xml:space="preserve">
<path fill-rule="evenodd" clip-rule="evenodd" d="M724.579,366.45c-1.1-0.633-1.517-1.684-1.25-3.15c0.267-1.433,1-2.45,2.2-3.05
	c0.934-0.467,2.167-0.7,3.7-0.7h5.55l1.35-7.65c0.267-1.533,0.7-2.7,1.301-3.5c0.8-1.066,1.933-1.6,3.399-1.6s2.4,0.534,2.8,1.6
	c0.301,0.8,0.301,1.967,0,3.5l-1.3,7.65h17.15c1.533,0,2.666,0.233,3.399,0.7c1,0.6,1.367,1.617,1.101,3.05
	c-0.267,1.467-1.033,2.517-2.3,3.15c-0.9,0.4-2.084,0.6-3.551,0.6h-17.149l-3.601,20.45c-0.466,2.533-0.583,4.167-0.35,4.9
	c0.434,1.133,1.833,1.699,4.2,1.699h3.45c1.733,0,2.966-0.166,3.699-0.5c1-0.433,1.801-1.35,2.4-2.75
	c0.4-0.899,0.983-1.633,1.75-2.199c0.833-0.567,1.717-0.851,2.65-0.851c1.066,0,1.899,0.367,2.5,1.101
	c0.633,0.699,0.866,1.583,0.699,2.649c-0.199,1-0.666,2.117-1.399,3.351c-0.733,1.133-1.517,2.1-2.351,2.899
	c-1.5,1.5-3.233,2.533-5.199,3.101c-1.534,0.466-3.467,0.699-5.801,0.699h-3.85c-2,0-3.7-0.267-5.1-0.8
	c-1.634-0.566-2.95-1.55-3.95-2.95c-1.601-2.133-1.9-5.616-0.9-10.449l3.601-20.351h-5.551
	C726.446,367.05,725.346,366.85,724.579,366.45z M663.129,367.05h-5.949c-1.834,0-3.684,0.684-5.551,2.05
	c-2.066,1.533-3.25,3.017-3.55,4.45l-2.5,14.101c-0.2,1.366,0.45,2.85,1.95,4.449c1.333,1.334,2.95,2,4.85,2h6
	c1.834,0,3.65-0.666,5.45-2c1.267-0.933,2.15-1.716,2.65-2.35c0.5-0.6,0.8-1.3,0.899-2.1l2.5-14.101
	c0.301-1.4-0.35-2.883-1.949-4.45C666.629,367.733,665.029,367.05,663.129,367.05z M709.779,344.65c1.4-0.333,3.517-0.5,6.35-0.5
	h1.95c1.7,0,2.9,0.184,3.601,0.55c1.066,0.566,1.449,1.633,1.149,3.2c-0.2,1.4-0.899,2.333-2.1,2.8c-0.767,0.3-2.017,0.45-3.75,0.45
	l-2.45-0.05c-2.634,0-4.566,0.417-5.8,1.25c-1.367,0.967-2.25,2.7-2.65,5.2l-0.399,2h7.35c1.566,0,2.717,0.233,3.45,0.7
	c0.967,0.6,1.316,1.617,1.05,3.05c-0.233,1.467-1,2.517-2.3,3.15c-0.9,0.4-2.066,0.6-3.5,0.6h-7.351l-5.199,29.4
	c-0.267,1.566-0.717,2.75-1.351,3.55c-0.767,1.066-1.883,1.6-3.35,1.6h-8.45c-1.467,0-2.566-0.216-3.3-0.649
	c-1.101-0.601-1.533-1.634-1.3-3.101c0.267-1.433,1-2.449,2.199-3.05c0.9-0.467,2.117-0.7,3.65-0.7h4.8l4.75-27.05h-6.85
	c-1.434,0-2.533-0.2-3.3-0.6c-1.067-0.633-1.467-1.684-1.2-3.15c0.267-1.433,1-2.45,2.2-3.05c0.899-0.467,2.116-0.7,3.649-0.7h6.8
	l0.2-0.95c0.5-2.7,0.983-4.65,1.45-5.85c0.8-1.867,2.1-3.533,3.9-5C705.579,346.183,707.612,345.15,709.779,344.65z M638.529,392.8
	c-0.667-1.467-0.783-3.35-0.35-5.649l2.35-13.601c0.467-2.4,1.184-4.283,2.15-5.65c0.899-1.267,2.517-2.733,4.85-4.4
	c2.3-1.667,4.1-2.733,5.4-3.2c1.333-0.5,3.199-0.75,5.6-0.75h5.4c2.233,0,3.983,0.333,5.25,1c0.966,0.5,2.383,1.667,4.25,3.5
	c1.866,1.8,3.05,3.267,3.55,4.4c0.633,1.433,0.75,3.316,0.35,5.65l-2.35,13.55c-0.467,2.366-1.2,4.25-2.2,5.649
	c-0.866,1.233-2.45,2.7-4.75,4.4c-2.3,1.666-4.1,2.733-5.4,3.2c-1.366,0.466-3.233,0.699-5.6,0.699h-5.4
	c-2.267,0-4.05-0.316-5.35-0.949c-1-0.5-2.384-1.65-4.15-3.45C640.229,395.4,639.029,393.934,638.529,392.8z M605.379,344.85
	c2.301-1.667,4.101-2.717,5.4-3.15c1.3-0.5,3.15-0.75,5.55-0.75h5.4c2.2,0,3.916,0.3,5.149,0.9c1,0.433,2.317,1.45,3.95,3.05
	l2.601,2.55c1.566,1.367,2.25,2.7,2.05,4c-0.134,0.833-0.5,1.517-1.101,2.05c-0.633,0.667-1.449,1.05-2.449,1.15
	c-1.034,0.1-2.2-0.433-3.5-1.6l-3.101-3c-1.166-1.1-2.633-1.65-4.399-1.65h-5.9c-1.134,0-2.116,0.167-2.95,0.5
	c-0.733,0.3-1.6,0.833-2.6,1.6c-2.134,1.567-3.3,3.033-3.5,4.4l-0.3,1.5c-0.233,1.367,0.416,2.85,1.949,4.45
	c0.934,0.933,3.434,2.983,7.5,6.15c4.733,3.833,8.301,6.733,10.7,8.7c1.867,1.533,3.066,2.983,3.601,4.35
	c0.633,1.467,0.733,3.4,0.3,5.8l-0.3,1.801c-0.434,2.366-1.134,4.25-2.101,5.649c-0.899,1.233-2.533,2.7-4.899,4.4
	c-2.233,1.633-4.017,2.7-5.351,3.2c-1.366,0.466-3.25,0.699-5.649,0.699h-5.4c-2.233,0-3.983-0.316-5.25-0.949
	c-0.967-0.467-2.384-1.617-4.25-3.45l-4.15-4.3c-0.434-0.667-0.583-1.434-0.45-2.301c0.133-0.767,0.483-1.433,1.05-2
	c0.633-0.633,1.45-1,2.45-1.1c1.066-0.134,2.267,0.4,3.6,1.6l3,3c1.366,1.334,2.967,2,4.8,2h5.95c1.9,0,3.75-0.666,5.55-2
	c2.066-1.566,3.267-3.05,3.601-4.449l0.35-2.351c0.167-0.833,0.15-1.533-0.05-2.1c-0.233-0.7-0.816-1.483-1.75-2.35l-18.25-14.9
	c-1.9-1.534-3.134-2.967-3.7-4.3c-0.634-1.467-0.717-3.383-0.25-5.75l0.15-1c0.433-2.4,1.133-4.283,2.1-5.65
	C601.43,348.017,603.046,346.55,605.379,344.85z M588.629,276.55l-3.65,2.5c-0.667,0.467-1.217,1.767-1.65,3.9l-2.4,13.75
	c-0.4,2.033-0.333,3.333,0.2,3.9l1.35,1.6c0.466,0.466,1.15,0.7,2.05,0.7h7.05c0.767,0,2.034-0.65,3.8-1.95l6.65-4.75
	c0.634-0.467,1.05-1.284,1.25-2.45l1.8-10.7c0.267-1.167,0.25-1.9-0.05-2.2l-3.15-3.05c-1.399-1.3-2.449-1.95-3.149-1.95h-7.85
	C589.979,275.85,589.229,276.083,588.629,276.55z M565.729,275.7c0.033,0.966-0.15,2.816-0.55,5.55l-3.95,21.65h0.2
	c1.434,0,2.534,0.217,3.3,0.65c1.033,0.6,1.417,1.633,1.15,3.1c-0.233,1.467-0.95,2.483-2.15,3.05c-0.9,0.466-2.117,0.7-3.65,0.7
	h-3.8c-1.367,0-2.267-0.533-2.7-1.6c-0.3-0.8-0.333-1.95-0.1-3.45l4.05-23.1c0.434-2.467,0.45-4.117,0.05-4.95
	c-0.466-0.966-1.783-1.45-3.95-1.45h-2.5c-0.8,0-1.633,0.233-2.5,0.7l-12.4,6.95l-3.85,21.75c-0.267,1.567-0.717,2.75-1.35,3.55
	c-0.767,1.067-1.883,1.6-3.35,1.6c-1.466,0-2.4-0.533-2.8-1.6c-0.3-0.8-0.317-1.983-0.05-3.55l5.2-29.4c-1.434,0-2.533-0.2-3.3-0.6
	c-1.067-0.633-1.45-1.683-1.15-3.15c0.233-1.434,0.95-2.45,2.15-3.05c0.9-0.466,2.1-0.7,3.6-0.7h3.8c1.533,0,2.483,0.583,2.85,1.75
	c0.267,0.833,0.25,2.083-0.05,3.75l-0.15,0.85v0.15l10.2-5.7c1.267-0.533,2.433-0.8,3.5-0.8h5.7c1.4,0,2.583,0.217,3.55,0.65
	c0.966,0.433,1.917,1.133,2.85,2.1C564.879,272.367,565.596,273.9,565.729,275.7z M591.179,268.35h8.9c1.334,0,3.134,1.233,5.4,3.7
	l1.399,1.45l0.101-0.75c0.233-1.267,0.733-2.3,1.5-3.1c0.866-0.867,1.899-1.3,3.1-1.3c1.5,0,2.417,0.566,2.75,1.7
	c0.3,0.8,0.3,1.983,0,3.55l-5.2,29.3h0.101c1.434,0,2.533,0.217,3.3,0.65c1.1,0.6,1.517,1.633,1.25,3.1s-1,2.483-2.2,3.05
	c-0.899,0.466-2.133,0.7-3.7,0.7h-1.699c-1.2,0-2.184-0.483-2.95-1.45c-0.667-0.867-1-1.9-1-3.1v-1.55l-2.9,2.45
	c-3.133,2.433-5.4,3.65-6.8,3.65h-8.85c-2.2-0.167-3.966-0.917-5.3-2.25l-3.9-4.2c-0.867-0.967-1.35-2.017-1.45-3.15
	c-0.066-0.8,0.05-2.1,0.35-3.9l2.6-14.55c0.267-1.733,0.783-3.333,1.55-4.8c0.7-1.433,1.483-2.466,2.35-3.1l6.3-4.3
	C587.913,268.95,589.579,268.35,591.179,268.35z M723.979,275.8c-1.467,0-2.566-0.216-3.3-0.65c-1.101-0.6-1.517-1.617-1.25-3.05
	c0.267-1.467,1-2.5,2.199-3.1c0.9-0.433,2.134-0.65,3.7-0.65h6.851c1.533,0,2.5,0.583,2.899,1.75c0.3,0.867,0.316,2.117,0.05,3.75
	l-1.949,10.65l4.35,15.3h1.95l14.5-23l0.8-4.3c0.233-1.267,0.783-2.267,1.65-3c0.866-0.767,1.949-1.15,3.25-1.15
	c1.433,0,2.366,0.533,2.8,1.6c0.3,0.8,0.316,1.983,0.05,3.55l-0.55,3c-0.434,2.067-1.033,3.65-1.8,4.75l-26.25,41.05
	c-1.134,1.733-2.101,2.833-2.9,3.3c-0.767,0.433-2.017,0.65-3.75,0.65h-5.85c-1.434,0-2.534-0.2-3.301-0.6
	c-1.033-0.633-1.416-1.7-1.149-3.2c0.233-1.434,0.95-2.45,2.149-3.05c0.9-0.433,2.117-0.65,3.65-0.65h4.4l7.6-11.45h-0.4
	c-1.366,0-2.3-0.35-2.8-1.05c-0.166-0.267-0.483-1.25-0.95-2.95l-4.85-17.45c-0.167-0.5-0.167-1.05,0-1.65l1.4-8.4H723.979z
	 M647.479,252.95c2.233,0,3.633,0.3,4.2,0.9c0.666,0.7,0.816,2.133,0.449,4.3l-7.949,44.75h10.35c1.533,0,2.667,0.233,3.4,0.7
	c0.966,0.6,1.333,1.617,1.1,3.05c-0.233,1.467-1,2.5-2.3,3.1c-0.9,0.433-2.066,0.65-3.5,0.65h-27c-1.434,0-2.533-0.217-3.3-0.65
	c-1.067-0.6-1.483-1.633-1.25-3.1c0.267-1.433,1-2.45,2.199-3.05c0.934-0.467,2.167-0.7,3.7-0.7h9.05l7.551-42.5h-9.051
	c-1.466,0-2.583-0.217-3.35-0.65c-1.066-0.6-1.467-1.617-1.2-3.05c0.2-1.467,0.917-2.5,2.15-3.1c0.934-0.434,2.166-0.65,3.7-0.65
	H647.479z M683.379,260.4c-1.466,0-2.583-0.217-3.35-0.65c-1.066-0.6-1.467-1.617-1.2-3.05c0.2-1.467,0.917-2.5,2.15-3.1
	c0.934-0.434,2.166-0.65,3.7-0.65h11.05c2.233,0,3.633,0.3,4.2,0.9c0.666,0.7,0.816,2.133,0.449,4.3l-7.949,44.75h10.35
	c1.533,0,2.667,0.233,3.4,0.7c0.966,0.6,1.333,1.617,1.1,3.05c-0.233,1.467-1,2.5-2.3,3.1c-0.9,0.433-2.066,0.65-3.5,0.65h-27
	c-1.434,0-2.533-0.217-3.3-0.65c-1.067-0.6-1.483-1.633-1.25-3.1c0.267-1.433,1-2.45,2.199-3.05c0.934-0.467,2.167-0.7,3.7-0.7h9.05
	l7.551-42.5H683.379z M565.629,460.3c0.233,1.334,0.133,3.134-0.3,5.4l-1.05,6c-0.4,2.233-0.967,3.7-1.7,4.399
	c-0.8,0.767-2.283,1.15-4.45,1.15h-24.15l-0.6,3.2c-0.067,0.8,0.183,1.533,0.75,2.2l1.15,1.5c0.667,0.899,2.25,1.35,4.75,1.35
	l16.7-0.15c1.5,0,2.633,0.233,3.4,0.7c1,0.601,1.367,1.617,1.1,3.05c-0.3,1.467-1.083,2.5-2.35,3.101
	c-0.9,0.434-2.067,0.649-3.5,0.649h-17.9c-1.8,0-3.017-0.083-3.65-0.25c-0.9-0.233-1.8-0.816-2.7-1.75l-2.75-2.85
	c-1.267-1.333-2.067-2.566-2.4-3.7c-0.333-1.133-0.317-2.7,0.05-4.7l2.55-14.449c0.4-2.101,0.934-3.75,1.6-4.95
	c0.767-1.4,2-2.733,3.7-4l3.05-2.25c1.867-1.4,3.467-2.3,4.8-2.7c0.933-0.3,2.283-0.45,4.05-0.45h6.9c1.934,0,3.383,0.167,4.35,0.5
	c1.1,0.367,2.267,1.117,3.5,2.25l2.6,2.4C564.529,457.217,565.363,458.667,565.629,460.3z M588.929,443.15
	c0.267-1.534,0.7-2.7,1.3-3.5c0.8-1.067,1.933-1.601,3.4-1.601c1.466,0,2.4,0.533,2.8,1.601c0.3,0.8,0.3,1.966,0,3.5l-1.301,7.649
	h17.15c1.533,0,2.667,0.233,3.4,0.7c1,0.6,1.366,1.616,1.1,3.05c-0.267,1.467-1.033,2.517-2.3,3.15c-0.9,0.399-2.084,0.6-3.55,0.6
	h-17.15l-3.6,20.45c-0.466,2.533-0.583,4.167-0.35,4.9c0.434,1.133,1.833,1.699,4.2,1.699h3.45c1.733,0,2.967-0.166,3.7-0.5
	c1-0.433,1.8-1.35,2.399-2.75c0.4-0.899,0.983-1.633,1.75-2.199c0.834-0.567,1.717-0.851,2.65-0.851c1.066,0,1.899,0.367,2.5,1.101
	c0.633,0.699,0.866,1.583,0.7,2.649c-0.2,1-0.667,2.117-1.4,3.351c-0.733,1.133-1.517,2.1-2.35,2.899
	c-1.5,1.5-3.233,2.533-5.2,3.101c-1.533,0.466-3.467,0.699-5.8,0.699h-3.851c-2,0-3.7-0.267-5.1-0.8
	c-1.634-0.566-2.95-1.55-3.95-2.95c-1.6-2.133-1.9-5.616-0.9-10.449l3.6-20.351h-5.55c-1.433,0-2.533-0.2-3.3-0.6
	c-1.1-0.634-1.517-1.684-1.25-3.15c0.267-1.434,1-2.45,2.2-3.05c0.934-0.467,2.167-0.7,3.7-0.7h5.55L588.929,443.15z M651.879,451.8
	c0.634,0.667,0.767,2.084,0.4,4.25l-5.25,29.3h11.15c1.5,0,2.616,0.233,3.35,0.7c0.967,0.601,1.333,1.617,1.1,3.05
	c-0.233,1.467-1,2.5-2.3,3.101c-0.899,0.434-2.066,0.649-3.5,0.649H626.68c-1.434,0-2.534-0.216-3.301-0.649
	c-1.066-0.601-1.466-1.634-1.199-3.101c0.233-1.433,0.949-2.449,2.149-3.05c0.934-0.467,2.167-0.7,3.7-0.7h11.45l4.85-27.05h-11.45
	c-1.433,0-2.517-0.2-3.25-0.6c-1.033-0.634-1.433-1.684-1.199-3.15c0.233-1.434,0.949-2.45,2.149-3.05c0.9-0.467,2.117-0.7,3.65-0.7
	h13.399C649.862,450.8,651.279,451.134,651.879,451.8z M676.18,450.8h3.8c1.533,0,2.483,0.584,2.85,1.75
	c0.267,0.834,0.25,2.084-0.05,3.75l-0.15,0.851v0.149l10.2-5.7c1.267-0.533,2.434-0.8,3.5-0.8h5.7c1.4,0,2.583,0.217,3.55,0.65
	s1.917,1.133,2.851,2.1c1.3,1.267,2.017,2.8,2.149,4.601c0.033,0.966-0.149,2.816-0.55,5.55l-3.95,21.649h0.2
	c1.434,0,2.533,0.217,3.3,0.65c1.033,0.6,1.417,1.634,1.15,3.1c-0.233,1.467-0.95,2.483-2.15,3.051
	c-0.899,0.466-2.116,0.699-3.649,0.699h-3.801c-1.366,0-2.267-0.533-2.699-1.6c-0.301-0.8-0.334-1.95-0.101-3.45l4.05-23.1
	c0.434-2.467,0.45-4.117,0.051-4.95c-0.467-0.967-1.784-1.45-3.95-1.45h-2.5c-0.8,0-1.634,0.233-2.5,0.7l-12.4,6.95l-3.85,21.75
	c-0.267,1.566-0.717,2.75-1.351,3.55c-0.767,1.066-1.883,1.6-3.35,1.6s-2.4-0.533-2.8-1.6c-0.3-0.8-0.316-1.983-0.05-3.55
	l5.199-29.4c-1.433,0-2.533-0.2-3.3-0.6c-1.066-0.634-1.45-1.684-1.149-3.15c0.233-1.434,0.949-2.45,2.149-3.05
	C673.479,451.033,674.68,450.8,676.18,450.8z M645.93,433.05c0.666-0.5,1.55-0.75,2.649-0.75h4.3c1.134,0,1.934,0.25,2.4,0.75
	c0.566,0.566,0.733,1.483,0.5,2.75l-0.6,3.55c-0.233,1.267-0.733,2.184-1.5,2.75c-0.667,0.5-1.551,0.75-2.65,0.75h-4.3
	c-1.134,0-1.934-0.25-2.4-0.75c-0.566-0.566-0.733-1.483-0.5-2.75l0.601-3.55C644.663,434.533,645.163,433.616,645.93,433.05z
	 M749.379,465.55c0.2-1.2,0.15-1.95-0.149-2.25l-3.15-3.05c-1.3-1.3-2.333-1.95-3.1-1.95h-7.8c-0.934,0-1.717,0.233-2.351,0.7
	l-3.55,2.5c-0.8,0.533-1.35,1.833-1.65,3.9l-1.85,10.55c-0.4,2.033-0.333,3.333,0.2,3.899l1.35,1.601c0.467,0.467,1.15,0.7,2.05,0.7
	h7.051c0.767,0,2.033-0.65,3.8-1.95l6.649-4.75c0.534-0.4,0.95-1.217,1.25-2.45L749.379,465.55z M755.879,450.8h3.801
	c1.5,0,2.616,0.233,3.35,0.7c0.967,0.6,1.316,1.616,1.05,3.05c-0.2,1.467-0.95,2.517-2.25,3.15c-0.899,0.399-2.066,0.6-3.5,0.6h-0.1
	l-6.101,34.3c-0.6,3.367-1.233,5.7-1.899,7c-0.634,1.233-1.851,2.517-3.65,3.851l-2.95,2.1c-1.833,1.334-3.433,2.217-4.8,2.65
	c-1.233,0.366-2.95,0.55-5.149,0.55h-12.45c-1.434,0-2.533-0.217-3.3-0.65c-1.067-0.6-1.5-1.633-1.301-3.1
	c0.301-1.467,1.067-2.483,2.301-3.05c0.866-0.467,2.066-0.7,3.6-0.7h12.9c1.199,0,2.55-0.566,4.05-1.7l3.2-2.3
	c0.899-0.8,1.449-1.85,1.649-3.15l1.75-9.649L744.18,486c-3.134,2.434-5.4,3.65-6.801,3.65h-8.85c-2.2-0.167-3.967-0.917-5.3-2.25
	l-3.9-4.2c-0.866-0.967-1.35-2.017-1.45-3.15c-0.066-0.8,0.051-2.083,0.351-3.85l2-11.4c0.3-1.767,0.8-3.366,1.5-4.8
	c0.767-1.434,1.583-2.467,2.45-3.1l6.3-4.301c1.733-1.199,3.399-1.8,5-1.8h8.85c1.4,0,3.184,1.233,5.351,3.7l1.399,1.45l0.2-0.75
	c0.2-1.233,0.684-2.267,1.45-3.101C753.596,451.233,754.646,450.8,755.879,450.8z M457.979,432.8c0.8-0.399,1.95-0.6,3.45-0.6h6.2
	c1.367,0,2.3,0.184,2.8,0.55c0.534,0.333,1.034,1.083,1.5,2.25l1.9,4.75c0.5,1.267,0.617,2.6,0.35,4l-7.9,45.2
	c-0.2,1.267-0.684,2.217-1.45,2.85c-0.833,0.7-1.933,1.05-3.3,1.05h-0.2c-1.366,0-2.316-0.35-2.85-1.05
	c-0.5-0.633-0.65-1.583-0.45-2.85l8-45.2l-1.5-3.8h-3.35l-2.7,3.8l-2.6,15.25c-0.233,1.233-0.75,2.184-1.55,2.85
	c-0.833,0.733-1.95,1.101-3.35,1.101c-1.367,0-2.317-0.367-2.85-1.101c-0.534-0.666-0.7-1.616-0.5-2.85l2.65-15.25l-1.45-3.8h-3.4
	l-2.75,3.8l-8,45.2c-0.233,1.267-0.733,2.217-1.5,2.85c-0.8,0.7-1.9,1.05-3.3,1.05h-0.15c-1.367,0-2.317-0.35-2.85-1.05
	c-0.5-0.633-0.65-1.583-0.45-2.85l8-44.9l-1.55-4.1h-2.85c-1.1,0-1.934-0.283-2.5-0.851c-0.667-0.699-0.9-1.699-0.7-3
	c0.233-1.333,0.8-2.333,1.7-3c0.833-0.6,1.816-0.899,2.95-0.899h3.65c1.466,0,2.5,0.2,3.1,0.6c0.733,0.533,1.1,1.45,1.1,2.75h0.15
	c0.667-1.6,1.65-2.583,2.95-2.95h0.1l0.9-0.3l7.95-0.1c1.466,0,2.5,0.2,3.1,0.6c0.7,0.533,1.05,1.45,1.05,2.75h0.15
	C456.213,434.25,456.979,433.333,457.979,432.8z M557.079,469.8l0.95-5c0.3-1.767,0.167-2.934-0.4-3.5l-1.95-2.05
	c-0.566-0.634-1.716-0.95-3.45-0.95h-6.9c-1.733,0-3.066,0.283-4,0.851l-2.95,1.899c-1.167,0.733-1.883,1.884-2.15,3.45l-0.95,5.3
	H557.079z M507.379,459.25c-0.567-0.634-1.717-0.95-3.45-0.95h-6.9c-1.733,0-3.066,0.283-4,0.851l-2.95,1.899
	c-1.167,0.733-1.883,1.884-2.15,3.45l-0.95,5.3h21.8l0.95-5c0.3-1.767,0.167-2.934-0.4-3.5L507.379,459.25z M508.729,451.3
	c1.1,0.367,2.267,1.117,3.5,2.25l2.6,2.4c1.4,1.267,2.233,2.717,2.5,4.35c0.233,1.334,0.134,3.134-0.3,5.4l-1.05,6
	c-0.4,2.233-0.967,3.7-1.7,4.399c-0.8,0.767-2.283,1.15-4.45,1.15h-24.15l-0.6,3.2c-0.066,0.8,0.184,1.533,0.75,2.2l1.15,1.5
	c0.667,0.899,2.25,1.35,4.75,1.35l16.7-0.15c1.5,0,2.633,0.233,3.4,0.7c1,0.601,1.367,1.617,1.1,3.05
	c-0.3,1.467-1.083,2.5-2.35,3.101c-0.9,0.434-2.066,0.649-3.5,0.649h-17.9c-1.8,0-3.017-0.083-3.65-0.25
	c-0.9-0.233-1.8-0.816-2.7-1.75l-2.75-2.85c-1.267-1.333-2.066-2.566-2.4-3.7c-0.333-1.133-0.316-2.7,0.05-4.7l2.55-14.449
	c0.4-2.101,0.934-3.75,1.6-4.95c0.767-1.4,2-2.733,3.7-4l3.05-2.25c1.867-1.4,3.466-2.3,4.8-2.7c0.934-0.3,2.284-0.45,4.05-0.45h6.9
	C506.312,450.8,507.763,450.967,508.729,451.3z M180.529,249.75c1.533,0,2.65,0.217,3.35,0.65c0.967,0.6,1.333,1.633,1.1,3.1
	c-0.233,1.433-1,2.45-2.3,3.05c-0.867,0.434-2.033,0.65-3.5,0.65h-13c-1.4,0-2.95,0.633-4.65,1.9l-5.55,4.05
	c-1.567,1.1-2.434,2.167-2.6,3.2c-0.167,1.066,0.333,2.133,1.5,3.2l3.2,3.1c1.233,1.267,2.55,1.9,3.95,1.9l5.85,0.05
	c1.8,0.2,2.867,0.883,3.2,2.05c0.067,0.133,0.1,0.25,0.1,0.35l0.05,0.45v0.15l-0.05,0.45v0.2c0,0.067-0.033,0.15-0.1,0.25l-0.35,1.1
	c-0.367,0.767-0.934,1.333-1.7,1.7c-0.633,0.333-1.433,0.55-2.4,0.65l-0.65,0.1h-4.25c-1.367,0-2.883,0.617-4.55,1.85l-5.6,4.05
	c-1.566,1.1-2.433,2.167-2.6,3.2l-0.65,3.5c-0.2,1.033,0.3,2.1,1.5,3.2l3.15,3.2c1.367,1.233,2.7,1.85,4,1.85h11.35l0.75-3.75
	c0.2-1.267,0.65-2.217,1.35-2.85c0.767-0.667,1.833-1,3.2-1c1.333,0,2.283,0.333,2.85,1c0.5,0.633,0.65,1.583,0.45,2.85l-1.35,7.5
	c-0.267,1.467-1.017,2.483-2.25,3.05c-0.9,0.466-2.117,0.7-3.65,0.7h-11.9c-2.467,0-4.183-0.133-5.15-0.4
	c-1.3-0.367-2.65-1.217-4.05-2.55l-4.8-4.65c-1.467-1.433-2.4-2.867-2.8-4.3c-0.333-1.3-0.284-3.133,0.15-5.5l0.15-1.05
	c0.433-2.367,1.067-4.217,1.9-5.55c0.867-1.4,2.317-2.833,4.35-4.3l5.3-3.85l-3.9-3.8c-1.4-1.3-2.316-2.583-2.75-3.85
	c-0.433-1.2-0.517-2.717-0.25-4.55c0.067-0.167,0.1-0.3,0.1-0.4l0.15-0.45V265c0.434-1.633,1.05-3.017,1.85-4.15
	c0.867-1.133,2.15-2.317,3.85-3.55l6.45-4.6c1.833-1.333,3.5-2.184,5-2.55c1.034-0.267,2.8-0.4,5.3-0.4H180.529z M193.179,268.35
	h3.85c1.533,0,3.033,1.367,4.5,4.1l7.35,11.45l14.2-14.15c1.133-0.933,2.184-1.4,3.15-1.4c1.1,0,2,0.383,2.7,1.15
	c0.767,0.767,1.067,1.667,0.9,2.7c-0.3,1.367-1.066,2.7-2.3,4l-14.1,13.7l8.9,13.25c0.9,1.434,1.267,2.767,1.1,4
	c-0.2,1.033-0.633,1.833-1.3,2.4c-0.633,0.567-1.5,0.85-2.6,0.85c-0.967,0-1.9-0.45-2.8-1.35l-9-14l-11.75,11.75
	c-2.267,2.4-4.167,3.6-5.7,3.6c-1.067,0-1.95-0.383-2.65-1.15c-0.733-0.767-1.017-1.683-0.85-2.75c0.3-1.333,1-2.567,2.1-3.7
	l14.2-13.85l-8.85-13.1h-2.35c-1.434,0-2.533-0.2-3.3-0.6c-1.066-0.633-1.45-1.683-1.15-3.15c0.233-1.434,0.95-2.45,2.15-3.05
	C190.446,268.583,191.646,268.35,193.179,268.35z M542.329,367.05h-7.8c-0.967,0-1.767,0.233-2.4,0.7l-3.5,2.5
	c-0.8,0.533-1.35,1.833-1.65,3.9l-2.45,13.75c-0.434,2.033-0.35,3.333,0.25,3.899l1.3,1.601c0.5,0.466,1.184,0.699,2.05,0.699h7.05
	c0.767,0,2.017-0.649,3.75-1.949l6.7-4.75c0.566-0.4,0.983-1.217,1.25-2.45l1.8-10.7c0.267-1.1,0.217-1.833-0.15-2.2l-3.05-3.05
	C544.079,367.7,543.029,367.05,542.329,367.05z M554.579,345.45c0.8-1.1,1.917-1.65,3.35-1.65c1.467,0,2.4,0.55,2.8,1.65
	c0.3,0.8,0.316,1.983,0.05,3.55l-8,44.95h0.05c1.434,0,2.534,0.217,3.3,0.649c1.1,0.601,1.533,1.634,1.3,3.101
	c-0.267,1.467-1.017,2.483-2.25,3.05c-0.9,0.467-2.117,0.7-3.65,0.7h-1.75c-1.233,0-2.2-0.483-2.9-1.45c-0.6-0.866-0.9-1.9-0.9-3.1
	l-0.15-1.45l-2.85,2.5c-3.134,2.434-5.4,3.649-6.8,3.649h-8.9c-2.267-0.166-4.017-0.916-5.25-2.25l-4.05-4.199
	c-0.8-0.967-1.267-2.017-1.4-3.15c-0.066-0.866,0.05-2.167,0.35-3.9l2.55-14.55c0.333-1.767,0.866-3.367,1.6-4.8
	s1.55-2.467,2.45-3.1l6.25-4.3c1.733-1.2,3.417-1.8,5.05-1.8h8.85c1.333,0,3.133,1.233,5.4,3.7l1.3,1.45l2.85-15.7
	C553.529,347.433,553.979,346.25,554.579,345.45z M475.729,359.55h3.8c1.533,0,2.483,0.583,2.85,1.75
	c0.267,0.833,0.25,2.083-0.05,3.75l-0.15,0.85v0.15l10.2-5.7c1.267-0.533,2.433-0.8,3.5-0.8h5.7c1.4,0,2.583,0.217,3.55,0.65
	c0.966,0.433,1.917,1.133,2.85,2.1c1.3,1.267,2.017,2.8,2.15,4.6c0.033,0.967-0.15,2.817-0.55,5.55l-3.95,21.649h0.2
	c1.434,0,2.534,0.217,3.3,0.65c1.033,0.6,1.417,1.634,1.15,3.1c-0.233,1.467-0.95,2.483-2.15,3.051
	c-0.9,0.466-2.117,0.699-3.65,0.699h-3.8c-1.367,0-2.267-0.533-2.7-1.6c-0.3-0.8-0.333-1.95-0.1-3.45l4.05-23.1
	c0.434-2.467,0.45-4.117,0.05-4.95c-0.467-0.967-1.784-1.45-3.95-1.45h-2.5c-0.8,0-1.633,0.233-2.5,0.7l-12.4,6.95l-3.85,21.75
	c-0.267,1.566-0.717,2.75-1.35,3.55c-0.767,1.066-1.883,1.6-3.35,1.6c-1.466,0-2.4-0.533-2.8-1.6c-0.3-0.8-0.316-1.983-0.05-3.55
	l5.2-29.4c-1.433,0-2.533-0.2-3.3-0.6c-1.067-0.633-1.45-1.684-1.15-3.15c0.233-1.433,0.95-2.45,2.15-3.05
	C473.029,359.783,474.229,359.55,475.729,359.55z M433.979,361.35c1.733-1.2,3.4-1.8,5-1.8h8.9c1.333,0,3.133,1.233,5.4,3.7
	l1.4,1.45l0.1-0.75c0.233-1.267,0.733-2.3,1.5-3.1c0.867-0.867,1.9-1.3,3.1-1.3c1.5,0,2.417,0.567,2.75,1.7
	c0.3,0.8,0.3,1.983,0,3.55l-5.2,29.3h0.1c1.434,0,2.533,0.217,3.3,0.65c1.1,0.6,1.517,1.634,1.25,3.1
	c-0.267,1.467-1,2.483-2.2,3.051c-0.9,0.466-2.133,0.699-3.7,0.699h-1.7c-1.2,0-2.184-0.483-2.95-1.449c-0.667-0.867-1-1.9-1-3.101
	v-1.55l-2.9,2.45c-3.133,2.434-5.4,3.649-6.8,3.649h-8.85c-2.2-0.166-3.967-0.916-5.3-2.25l-3.9-4.199
	c-0.867-0.967-1.35-2.017-1.45-3.15c-0.066-0.8,0.05-2.1,0.35-3.9l2.6-14.55c0.267-1.733,0.783-3.333,1.55-4.8
	c0.7-1.433,1.483-2.467,2.35-3.1L433.979,361.35z M438.679,367.05c-0.9,0-1.65,0.233-2.25,0.7l-3.65,2.5
	c-0.667,0.467-1.217,1.767-1.65,3.9l-2.4,13.75c-0.4,2.033-0.333,3.333,0.2,3.899l1.35,1.601c0.467,0.466,1.15,0.699,2.05,0.699
	h7.05c0.767,0,2.033-0.649,3.8-1.949l6.65-4.75c0.634-0.467,1.05-1.284,1.25-2.45l1.8-10.7c0.267-1.167,0.25-1.9-0.05-2.2
	l-3.15-3.05c-1.4-1.3-2.45-1.95-3.15-1.95H438.679z M462.579,253.35l-0.6,3.55c-0.233,1.267-0.733,2.184-1.5,2.75
	c-0.667,0.5-1.55,0.75-2.65,0.75h-4.3c-1.133,0-1.934-0.25-2.4-0.75c-0.567-0.566-0.733-1.483-0.5-2.75l0.6-3.55
	c0.233-1.267,0.733-2.184,1.5-2.75c0.667-0.5,1.55-0.75,2.65-0.75h4.3c1.133,0,1.934,0.25,2.4,0.75
	C462.646,251.167,462.812,252.083,462.579,253.35z M437.379,269.05c0.9-0.466,2.117-0.7,3.65-0.7h13.4c2.233,0,3.65,0.333,4.25,1
	c0.633,0.667,0.767,2.083,0.4,4.25l-5.25,29.3h11.15c1.5,0,2.616,0.233,3.35,0.7c0.967,0.6,1.333,1.617,1.1,3.05
	c-0.233,1.467-1,2.5-2.3,3.1c-0.9,0.433-2.067,0.65-3.5,0.65h-30.15c-1.434,0-2.534-0.217-3.3-0.65c-1.066-0.6-1.466-1.633-1.2-3.1
	c0.233-1.433,0.95-2.45,2.15-3.05c0.933-0.467,2.167-0.7,3.7-0.7h11.45l4.85-27.05h-11.45c-1.433,0-2.517-0.2-3.25-0.6
	c-1.033-0.633-1.433-1.683-1.2-3.15C435.463,270.667,436.179,269.65,437.379,269.05z M486.829,282.35l-2.5,14.1
	c-0.2,1.367,0.45,2.85,1.95,4.45c1.333,1.333,2.95,2,4.85,2h6c1.833,0,3.65-0.667,5.45-2c1.267-0.933,2.15-1.717,2.65-2.35
	c0.5-0.6,0.8-1.3,0.9-2.1l2.5-14.1c0.3-1.4-0.35-2.883-1.95-4.45c-1.3-1.367-2.9-2.05-4.8-2.05h-5.95
	c-1.833,0-3.683,0.683-5.55,2.05C488.312,279.433,487.129,280.917,486.829,282.35z M502.679,268.35c2.233,0,3.983,0.333,5.25,1
	c0.967,0.5,2.383,1.667,4.25,3.5c1.867,1.8,3.05,3.267,3.55,4.4c0.633,1.433,0.75,3.317,0.35,5.65l-2.35,13.55
	c-0.467,2.367-1.2,4.25-2.2,5.65c-0.867,1.233-2.45,2.7-4.75,4.4c-2.3,1.667-4.1,2.733-5.4,3.2c-1.367,0.466-3.233,0.7-5.6,0.7h-5.4
	c-2.267,0-4.05-0.316-5.35-0.95c-1-0.5-2.383-1.65-4.15-3.45c-1.9-1.8-3.1-3.267-3.6-4.4c-0.667-1.467-0.783-3.35-0.35-5.65
	l2.35-13.6c0.467-2.4,1.184-4.283,2.15-5.65c0.9-1.267,2.517-2.733,4.85-4.4c2.3-1.667,4.1-2.733,5.4-3.2
	c1.333-0.5,3.2-0.75,5.6-0.75H502.679z M356.529,367.75l-3.5,2.5c-0.8,0.533-1.35,1.833-1.65,3.9l-2.45,13.75
	c-0.433,2.033-0.35,3.333,0.25,3.899l1.3,1.601c0.5,0.466,1.183,0.699,2.05,0.699h7.05c0.767,0,2.017-0.649,3.75-1.949l6.7-4.75
	c0.567-0.4,0.983-1.217,1.25-2.45l1.8-10.7c0.267-1.1,0.217-1.833-0.15-2.2l-3.05-3.05c-1.4-1.3-2.45-1.95-3.15-1.95h-7.8
	C357.962,367.05,357.163,367.283,356.529,367.75z M378.979,345.45c0.8-1.1,1.917-1.65,3.35-1.65c1.467,0,2.4,0.55,2.8,1.65
	c0.3,0.8,0.316,1.983,0.05,3.55l-8,44.95h0.05c1.433,0,2.533,0.217,3.3,0.649c1.1,0.601,1.533,1.634,1.3,3.101
	c-0.267,1.467-1.017,2.483-2.25,3.05c-0.9,0.467-2.117,0.7-3.65,0.7h-1.75c-1.233,0-2.2-0.483-2.9-1.45c-0.6-0.866-0.9-1.9-0.9-3.1
	l-0.15-1.45l-2.85,2.5c-3.133,2.434-5.4,3.649-6.8,3.649h-8.9c-2.267-0.166-4.017-0.916-5.25-2.25l-4.05-4.199
	c-0.8-0.967-1.267-2.017-1.4-3.15c-0.067-0.866,0.05-2.167,0.35-3.9l2.55-14.55c0.333-1.767,0.867-3.367,1.6-4.8
	c0.733-1.433,1.55-2.467,2.45-3.1l6.25-4.3c1.733-1.2,3.417-1.8,5.05-1.8h8.85c1.333,0,3.133,1.233,5.4,3.7l1.3,1.45l2.85-15.7
	C377.929,347.433,378.379,346.25,378.979,345.45z M300.129,363.3c0.267-1.433,1.017-2.45,2.25-3.05c0.9-0.467,2.117-0.7,3.65-0.7
	h3.8c1.367,0,2.267,0.534,2.7,1.6c0.333,0.833,0.367,1.967,0.1,3.4l-0.45,3.05l10.35-7.05c1.333-0.667,2.533-1,3.6-1h4.45
	c1.434,0,2.717,0.267,3.85,0.8c1.067,0.467,2.067,1.2,3,2.2c1.4,1.5,2.167,2.9,2.3,4.2c0.133,0.7-0.017,2.133-0.45,4.3
	c-0.267,1.6-0.683,2.784-1.25,3.55c-0.8,1.1-1.917,1.65-3.35,1.65c-1.2,0-2.017-0.433-2.45-1.3c-0.267-0.6-0.317-1.383-0.15-2.35
	c0.633-2.633,0.817-4.2,0.55-4.7c-0.3-0.566-0.967-0.95-2-1.15l-2.8-0.25h-0.6c-1,0-2.367,0.617-4.1,1.85l-12.8,9.15l-2.85,16.6h8
	c1.5,0,2.617,0.233,3.35,0.7c0.967,0.601,1.333,1.617,1.1,3.05c-0.233,1.467-0.983,2.5-2.25,3.101
	c-0.933,0.434-2.117,0.649-3.55,0.649h-16.8c-1.433,0-2.533-0.216-3.3-0.649c-1.067-0.601-1.483-1.634-1.25-3.101
	c0.233-1.433,0.967-2.449,2.2-3.05c0.933-0.467,2.167-0.7,3.7-0.7h1.25l4.8-27.05c-1.467,0-2.567-0.2-3.3-0.6
	C300.363,365.817,299.929,364.767,300.129,363.3z M279.079,364.7l0.1-0.75c0.233-1.267,0.733-2.3,1.5-3.1
	c0.867-0.867,1.9-1.3,3.1-1.3c1.5,0,2.417,0.567,2.75,1.7c0.3,0.8,0.3,1.983,0,3.55l-5.2,29.3h0.1c1.434,0,2.533,0.217,3.3,0.65
	c1.1,0.6,1.517,1.634,1.25,3.1c-0.267,1.467-1,2.483-2.2,3.051c-0.9,0.466-2.133,0.699-3.7,0.699h-1.7
	c-1.2,0-2.184-0.483-2.95-1.449c-0.667-0.867-1-1.9-1-3.101v-1.55l-2.9,2.45c-3.133,2.434-5.4,3.649-6.8,3.649h-8.85
	c-2.2-0.166-3.967-0.916-5.3-2.25l-3.9-4.199c-0.867-0.967-1.35-2.017-1.45-3.15c-0.067-0.8,0.05-2.1,0.35-3.9l2.6-14.55
	c0.267-1.733,0.783-3.333,1.55-4.8c0.7-1.433,1.483-2.467,2.35-3.1l6.3-4.3c1.733-1.2,3.4-1.8,5-1.8h8.9
	c1.333,0,3.133,1.233,5.4,3.7L279.079,364.7z M274.079,369c-1.4-1.3-2.45-1.95-3.15-1.95h-7.85c-0.9,0-1.65,0.233-2.25,0.7
	l-3.65,2.5c-0.667,0.467-1.217,1.767-1.65,3.9l-2.4,13.75c-0.4,2.033-0.333,3.333,0.2,3.899l1.35,1.601
	c0.467,0.466,1.15,0.699,2.05,0.699h7.05c0.767,0,2.033-0.649,3.8-1.949l6.65-4.75c0.633-0.467,1.05-1.284,1.25-2.45l1.8-10.7
	c0.267-1.167,0.25-1.9-0.05-2.2L274.079,369z M241.129,341.05c1.367,0,2.333,0.317,2.9,0.95c0.5,0.633,0.65,1.6,0.45,2.9l-9.4,52.8
	c-0.2,1.267-0.683,2.217-1.45,2.85c-0.833,0.7-1.934,1.05-3.3,1.05s-2.333-0.35-2.9-1.05c-0.533-0.633-0.7-1.583-0.5-2.85l4-22.5
	h-22.45l-3.95,22.5c-0.2,1.267-0.7,2.217-1.5,2.85c-0.833,0.7-1.933,1.05-3.3,1.05s-2.333-0.35-2.9-1.05
	c-0.533-0.633-0.7-1.583-0.5-2.85l8.7-48.85h-5.1c-1.066,0-1.917-0.317-2.55-0.95c-0.667-0.7-0.883-1.7-0.65-3
	c0.233-1.333,0.816-2.333,1.75-3c0.767-0.566,1.733-0.85,2.9-0.85h9.15c1.4,0,2.367,0.317,2.9,0.95c0.5,0.633,0.65,1.6,0.45,2.9
	l-3.95,22.5h22.4l4-22.5c0.2-1.267,0.7-2.233,1.5-2.9C238.629,341.367,239.729,341.05,241.129,341.05z M296.929,278.6
	c-1.167,0.733-1.883,1.883-2.15,3.45l-0.95,5.3h21.8l0.95-5c0.3-1.767,0.167-2.934-0.4-3.5l-1.95-2.05
	c-0.567-0.633-1.717-0.95-3.45-0.95h-6.9c-1.733,0-3.067,0.283-4,0.85L296.929,278.6z M260.679,268.35h11.9
	c1.534,0,2.667,0.233,3.4,0.7c1.033,0.6,1.417,1.617,1.15,3.05c-0.267,1.467-1.05,2.517-2.35,3.15c-0.9,0.4-2.083,0.6-3.55,0.6
	h-12.5c-1.4,0-2.95,0.633-4.65,1.9l-5.75,4.1c-1.533,1.1-2.417,2.167-2.65,3.2l-1.7,9.8c-0.167,1.066,0.333,2.133,1.5,3.2l2.95,3
	c1.333,1.233,2.667,1.85,4,1.85h14.05c1.433,0,2.533,0.217,3.3,0.65c1.067,0.6,1.483,1.633,1.25,3.1c-0.267,1.467-1,2.483-2.2,3.05
	c-0.933,0.466-2.15,0.7-3.65,0.7h-11.95c-2.467,0-4.167-0.133-5.1-0.4c-1.333-0.367-2.684-1.217-4.05-2.55l-4.8-4.65
	c-1.5-1.433-2.433-2.867-2.8-4.3c-0.367-1.3-0.333-3.133,0.1-5.5l1.25-7.25c0.4-2.333,1.017-4.167,1.85-5.5
	c0.9-1.4,2.367-2.833,4.4-4.3l6.4-4.6c1.867-1.333,3.517-2.184,4.95-2.55C256.462,268.5,258.212,268.35,260.679,268.35z
	 M382.979,272.1c0.267-1.434,1-2.45,2.2-3.05c0.934-0.466,2.167-0.7,3.7-0.7h5.55l1.35-7.65c0.267-1.534,0.7-2.7,1.3-3.5
	c0.8-1.067,1.934-1.6,3.4-1.6c1.466,0,2.4,0.533,2.8,1.6c0.3,0.8,0.3,1.966,0,3.5l-1.3,7.65h17.15c1.533,0,2.667,0.233,3.4,0.7
	c1,0.6,1.367,1.617,1.1,3.05c-0.267,1.467-1.033,2.517-2.3,3.15c-0.9,0.4-2.083,0.6-3.55,0.6h-17.15l-3.6,20.45
	c-0.467,2.534-0.583,4.167-0.35,4.9c0.434,1.133,1.833,1.7,4.2,1.7h3.45c1.733,0,2.967-0.167,3.7-0.5c1-0.433,1.8-1.35,2.4-2.75
	c0.4-0.9,0.983-1.633,1.75-2.2c0.833-0.567,1.717-0.85,2.65-0.85c1.067,0,1.9,0.367,2.5,1.1c0.633,0.7,0.867,1.583,0.7,2.65
	c-0.2,1-0.667,2.117-1.4,3.35c-0.733,1.133-1.517,2.1-2.35,2.9c-1.5,1.5-3.233,2.533-5.2,3.1c-1.533,0.466-3.466,0.7-5.8,0.7h-3.85
	c-2,0-3.7-0.267-5.1-0.8c-1.633-0.567-2.95-1.55-3.95-2.95c-1.6-2.133-1.9-5.617-0.9-10.45l3.6-20.35h-5.55
	c-1.433,0-2.533-0.2-3.3-0.6C383.129,274.617,382.712,273.567,382.979,272.1z M352.479,278.05l-5.6,4.45
	c-1.6,1.333-2.533,2.65-2.8,3.95l-1.4,8.1c-0.2,1.5-0.017,2.567,0.55,3.2l4.15,4.6c1.1,1.4,2.05,2.1,2.85,2.1h2.7
	c0.667,0,1.617-0.434,2.85-1.3l6.45-4.65c1.233-0.933,1.95-2.033,2.15-3.3l1.9-10.6c0.233-1.3-0.1-2.4-1-3.3l-4.25-4.1
	c-0.767-0.9-1.55-1.35-2.35-1.35h-2.65C355.263,275.85,354.079,276.583,352.479,278.05z M322.829,289.25
	c-0.4,2.233-0.966,3.7-1.7,4.4c-0.8,0.767-2.283,1.15-4.45,1.15h-24.15l-0.6,3.2c-0.066,0.8,0.184,1.533,0.75,2.2l1.15,1.5
	c0.667,0.9,2.25,1.35,4.75,1.35l16.7-0.15c1.5,0,2.633,0.233,3.4,0.7c1,0.6,1.367,1.617,1.1,3.05c-0.3,1.467-1.083,2.5-2.35,3.1
	c-0.9,0.433-2.066,0.65-3.5,0.65h-17.9c-1.8,0-3.017-0.083-3.65-0.25c-0.9-0.233-1.8-0.816-2.7-1.75l-2.75-2.85
	c-1.267-1.333-2.066-2.566-2.4-3.7s-0.317-2.7,0.05-4.7l2.55-14.45c0.4-2.1,0.933-3.75,1.6-4.95c0.767-1.4,2-2.733,3.7-4l3.05-2.25
	c1.867-1.4,3.466-2.3,4.8-2.7c0.933-0.3,2.283-0.45,4.05-0.45h6.9c1.933,0,3.383,0.167,4.35,0.5c1.1,0.367,2.267,1.117,3.5,2.25
	l2.6,2.4c1.4,1.267,2.233,2.717,2.5,4.35c0.233,1.333,0.133,3.133-0.3,5.4L322.829,289.25z M343.529,268.35
	c1.4,0,2.333,0.517,2.8,1.55c0.367,0.8,0.4,1.934,0.1,3.4l-0.15,0.95l5.7-4.25c1.667-1.1,2.966-1.65,3.9-1.65h5.15
	c1.2,0,3.117,1.15,5.75,3.45l3.9,3.5c1.8,1.667,2.867,3.233,3.2,4.7c0.267,1.267,0.15,3.317-0.35,6.15l-1.45,8.05
	c-0.5,2.833-1.1,4.883-1.8,6.15c-0.867,1.467-2.483,3.033-4.85,4.7l-5.25,3.55c-3.033,2.233-5.233,3.35-6.6,3.35h-5.1
	c-1.467,0-2.733-0.45-3.8-1.35c-0.066-0.067-1-1.1-2.8-3.1l-1.2-1.4l-2.7,15.05c-0.3,1.567-0.75,2.75-1.35,3.55
	c-0.8,1.066-1.917,1.6-3.35,1.6c-1.467,0-2.4-0.533-2.8-1.6c-0.3-0.8-0.317-1.983-0.05-3.55l8-45.3c-1.433,0-2.533-0.2-3.3-0.6
	c-1.033-0.633-1.417-1.683-1.15-3.15c0.233-1.434,0.95-2.45,2.15-3.05c0.9-0.466,2.117-0.7,3.65-0.7H343.529z"/>
<path fill-rule="evenodd" clip-rule="evenodd" fill="#999999" d="M1187.029,393.8l8-45.1h-23.05l-8,45.1H1187.029z M1196.479,340.95
	c1.066,0,2.05,0.2,2.95,0.6c0.866,0.4,1.583,0.967,2.149,1.7c0.601,0.7,1.017,1.517,1.25,2.45c0.233,0.966,0.25,1.966,0.05,3
	l-8,45.1c-0.166,1.101-0.55,2.134-1.149,3.101c-0.533,0.933-1.217,1.75-2.05,2.449c-0.834,0.7-1.75,1.25-2.75,1.65
	c-1.067,0.4-2.15,0.6-3.25,0.6h-23.051c-1.1,0-2.1-0.199-3-0.6c-0.866-0.4-1.6-0.95-2.199-1.65c-0.601-0.733-1-1.55-1.2-2.449
	c-0.233-0.967-0.267-2-0.101-3.101l8-45.1c0.2-1.034,0.601-2.034,1.2-3c0.567-0.934,1.283-1.75,2.15-2.45
	c0.833-0.733,1.767-1.3,2.8-1.7c1-0.4,2.033-0.6,3.1-0.6H1196.479z M1074.079,367.65c0.833-0.7,2.083-1.05,3.75-1.05h18.351
	c1.633,0,2.75,0.35,3.35,1.05c0.633,0.767,0.783,2,0.45,3.7c-0.3,1.7-0.9,2.933-1.8,3.7c-0.867,0.7-2.117,1.05-3.75,1.05h-18.351
	c-1.633,0-2.75-0.35-3.35-1.05c-0.634-0.767-0.8-2-0.5-3.7C1072.529,369.65,1073.146,368.417,1074.079,367.65z M1118.43,344.85
	c0.232-1.333,0.816-2.333,1.75-3c0.8-0.6,1.75-0.9,2.85-0.9h27c1.1,0,2.1,0.2,3,0.6c0.867,0.367,1.6,0.9,2.2,1.6
	c0.566,0.733,0.967,1.567,1.2,2.5c0.199,0.967,0.217,1.983,0.05,3.05l-2.7,15c-0.267,1.667-0.7,3.05-1.3,4.15
	c-0.7,1.233-1.733,2.367-3.101,3.4c1,1.033,1.617,2.183,1.851,3.45c0.233,1.1,0.2,2.483-0.101,4.15l-2.649,14.95
	c-0.2,1.101-0.583,2.134-1.15,3.101c-0.533,0.933-1.217,1.75-2.05,2.449c-0.867,0.7-1.8,1.25-2.8,1.65c-1.033,0.4-2.101,0.6-3.2,0.6
	h-26.95c-1.133,0-2-0.3-2.6-0.899c-0.7-0.7-0.934-1.7-0.7-3c0.267-1.3,0.85-2.3,1.75-3c0.8-0.601,1.767-0.9,2.9-0.9h26.949
	l2.25-12.95c0.4-2.033,0.301-3.533-0.3-4.5c-0.5-0.767-1.35-1.15-2.55-1.15h-15.4c-1.133,0-1.982-0.317-2.55-0.95
	c-0.667-0.667-0.899-1.667-0.7-3c0.268-1.3,0.867-2.3,1.801-3c0.767-0.567,1.717-0.85,2.85-0.85h15.4c1.199,0,2.199-0.417,3-1.25
	c0.899-0.933,1.55-2.433,1.949-4.5l2.25-12.95h-27c-1.1,0-1.949-0.284-2.55-0.85C1118.446,347.15,1118.229,346.15,1118.43,344.85z
	 M1029.93,375.2l-3.351,18.6h23.101l3.3-18.6H1029.93z M1042.43,348.7l-3.301,18.7h7.4l3.3-18.7H1042.43z M1035.329,344.85
	c0.2-1.1,0.684-2,1.45-2.7c0.833-0.8,1.9-1.2,3.2-1.2h15.2c1.267,0,2.183,0.4,2.75,1.2c0.5,0.7,0.649,1.6,0.449,2.7l-4,22.55
	c1.167,0,2.2,0.2,3.101,0.6c0.866,0.333,1.616,0.85,2.25,1.55c0.566,0.667,0.95,1.483,1.149,2.45c0.2,0.967,0.167,2.05-0.1,3.25
	l-3.3,18.55c-0.2,1.2-0.567,2.283-1.101,3.25c-0.5,0.967-1.149,1.767-1.949,2.4c-0.801,0.7-1.7,1.233-2.7,1.6
	c-1.067,0.367-2.2,0.55-3.4,0.55h-23.05c-1.2,0-2.267-0.183-3.2-0.55c-0.899-0.366-1.633-0.899-2.2-1.6
	c-0.566-0.634-0.949-1.434-1.149-2.4s-0.184-2.05,0.05-3.25l3.3-18.55c0.233-1.233,0.601-2.317,1.101-3.25
	c0.533-0.967,1.217-1.783,2.05-2.45c0.833-0.7,1.75-1.216,2.75-1.55c1.033-0.4,2.133-0.6,3.3-0.6L1035.329,344.85z M1012.68,340.95
	c1.366,0,2.467,0.15,3.3,0.45c0.967,0.3,1.85,0.883,2.649,1.75c0.834,0.934,1.301,1.983,1.4,3.15c0.1,0.867,0.017,2.117-0.25,3.75
	l-2.8,16c-0.333,1.667-0.684,2.917-1.05,3.75c-0.567,1.2-1.45,2.25-2.65,3.15c-1.066,0.867-2.15,1.466-3.25,1.8
	c-0.934,0.3-2.1,0.45-3.5,0.45h-22.1l-3.301,18.6h26.95c1.134,0,2,0.3,2.601,0.9c0.666,0.7,0.883,1.7,0.649,3
	c-0.2,1.3-0.783,2.3-1.75,3c-0.767,0.6-1.733,0.899-2.899,0.899h-34.801l4.551-25.45c0.267-1.433,0.666-2.7,1.199-3.8
	c0.567-1.1,1.283-2.017,2.15-2.75c0.9-0.733,1.934-1.3,3.1-1.7c1.2-0.333,2.518-0.5,3.95-0.5h22.05l3.301-18.7h-27
	c-1.101,0-1.95-0.284-2.551-0.85c-0.699-0.7-0.916-1.7-0.649-3c0.233-1.333,0.8-2.333,1.7-3c0.833-0.6,1.816-0.9,2.949-0.9H1012.68z
	 M888.729,374.45l-1.05,6c-0.4,2.233-0.967,3.7-1.7,4.4c-0.8,0.766-2.283,1.15-4.45,1.15h-24.15l-0.6,3.2
	c-0.066,0.8,0.184,1.533,0.75,2.2l1.15,1.5c0.666,0.899,2.25,1.35,4.75,1.35l16.699-0.15c1.5,0,2.634,0.233,3.4,0.7
	c1,0.601,1.366,1.617,1.1,3.05c-0.3,1.467-1.083,2.5-2.35,3.101c-0.9,0.434-2.066,0.649-3.5,0.649h-17.9
	c-1.8,0-3.017-0.083-3.649-0.25c-0.9-0.233-1.8-0.816-2.7-1.75l-2.75-2.85c-1.267-1.333-2.066-2.566-2.4-3.7
	c-0.333-1.133-0.316-2.7,0.051-4.7l2.55-14.45c0.399-2.1,0.934-3.75,1.6-4.95c0.767-1.4,2-2.733,3.7-4l3.05-2.25
	c1.867-1.4,3.467-2.3,4.8-2.7c0.934-0.3,2.284-0.45,4.051-0.45h6.899c1.934,0,3.384,0.167,4.351,0.5c1.1,0.367,2.267,1.117,3.5,2.25
	l2.6,2.4c1.4,1.267,2.233,2.716,2.5,4.35C889.263,370.383,889.163,372.183,888.729,374.45z M911.93,362.55
	c1.866-1.333,3.517-2.183,4.949-2.55c1.034-0.3,2.784-0.45,5.25-0.45h11.9c1.533,0,2.667,0.233,3.4,0.7
	c1.033,0.6,1.416,1.617,1.149,3.05c-0.267,1.467-1.05,2.517-2.35,3.15c-0.9,0.4-2.084,0.6-3.55,0.6h-12.5
	c-1.4,0-2.95,0.633-4.65,1.9l-5.75,4.1c-1.533,1.1-2.417,2.167-2.65,3.2l-1.699,9.8c-0.167,1.066,0.333,2.134,1.5,3.2l2.949,3
	c1.334,1.233,2.667,1.85,4,1.85h14.051c1.433,0,2.533,0.217,3.3,0.65c1.066,0.6,1.483,1.634,1.25,3.1
	c-0.267,1.467-1,2.483-2.2,3.051c-0.934,0.466-2.15,0.699-3.65,0.699H914.68c-2.467,0-4.167-0.133-5.101-0.399
	c-1.333-0.367-2.684-1.217-4.05-2.55l-4.8-4.65c-1.5-1.434-2.434-2.866-2.8-4.3c-0.367-1.3-0.334-3.134,0.1-5.5l1.25-7.25
	c0.4-2.333,1.017-4.167,1.85-5.5c0.9-1.4,2.367-2.833,4.4-4.3L911.93,362.55z M890.029,289.25c-0.4,2.233-0.967,3.7-1.7,4.4
	c-0.8,0.767-2.283,1.15-4.45,1.15h-24.149l-0.601,3.2c-0.066,0.8,0.184,1.533,0.75,2.2l1.15,1.5c0.667,0.9,2.25,1.35,4.75,1.35
	l16.7-0.15c1.5,0,2.633,0.233,3.399,0.7c1,0.6,1.367,1.617,1.101,3.05c-0.3,1.467-1.084,2.5-2.351,3.1
	c-0.899,0.433-2.066,0.65-3.5,0.65h-17.899c-1.8,0-3.017-0.083-3.65-0.25c-0.899-0.233-1.8-0.816-2.7-1.75l-2.75-2.85
	c-1.267-1.333-2.066-2.566-2.399-3.7c-0.334-1.133-0.316-2.7,0.05-4.7l2.55-14.45c0.4-2.1,0.934-3.75,1.601-4.95
	c0.767-1.4,2-2.733,3.699-4l3.051-2.25c1.866-1.4,3.466-2.3,4.8-2.7c0.934-0.3,2.283-0.45,4.05-0.45h6.9
	c1.933,0,3.383,0.167,4.35,0.5c1.1,0.367,2.267,1.117,3.5,2.25l2.6,2.4c1.4,1.267,2.233,2.717,2.5,4.35
	c0.233,1.333,0.134,3.133-0.3,5.4L890.029,289.25z M915.079,268.35c1.367,0,2.267,0.533,2.7,1.6c0.333,0.833,0.366,1.966,0.1,3.4
	l-0.449,3.05l10.35-7.05c1.333-0.667,2.533-1,3.6-1h4.45c1.434,0,2.717,0.267,3.851,0.8c1.066,0.467,2.066,1.2,3,2.2
	c1.399,1.5,2.166,2.9,2.3,4.2c0.133,0.7-0.017,2.133-0.45,4.3c-0.267,1.6-0.684,2.783-1.25,3.55c-0.8,1.1-1.917,1.65-3.35,1.65
	c-1.2,0-2.017-0.433-2.45-1.3c-0.267-0.6-0.316-1.383-0.15-2.35c0.634-2.633,0.816-4.2,0.55-4.7c-0.3-0.567-0.966-0.95-2-1.15
	l-2.8-0.25h-0.6c-1,0-2.367,0.617-4.101,1.85l-12.8,9.15l-2.85,16.6h8c1.5,0,2.616,0.233,3.35,0.7c0.967,0.6,1.334,1.617,1.101,3.05
	c-0.233,1.467-0.983,2.5-2.25,3.1c-0.934,0.433-2.117,0.65-3.551,0.65h-16.8c-1.434,0-2.533-0.217-3.3-0.65
	c-1.066-0.6-1.483-1.633-1.25-3.1c0.233-1.433,0.967-2.45,2.2-3.05c0.934-0.467,2.166-0.7,3.7-0.7h1.25l4.8-27.05
	c-1.467,0-2.566-0.2-3.3-0.6c-1.067-0.633-1.5-1.683-1.301-3.15c0.267-1.434,1.017-2.45,2.25-3.05c0.9-0.466,2.117-0.7,3.65-0.7
	H915.079z M1029.829,253.35l-0.6,3.55c-0.233,1.267-0.733,2.184-1.5,2.75c-0.667,0.5-1.55,0.75-2.65,0.75h-4.3
	c-1.133,0-1.934-0.25-2.4-0.75c-0.566-0.566-0.732-1.483-0.5-2.75l0.601-3.55c0.233-1.267,0.733-2.184,1.5-2.75
	c0.667-0.5,1.55-0.75,2.649-0.75h4.301c1.133,0,1.933,0.25,2.399,0.75C1029.896,251.167,1030.062,252.083,1029.829,253.35z
	 M1044.479,272.1c0.233-1.434,0.95-2.45,2.149-3.05c0.9-0.466,2.101-0.7,3.601-0.7h3.8c1.533,0,2.483,0.583,2.85,1.75
	c0.268,0.833,0.25,2.083-0.05,3.75l-0.149,0.85v0.15l10.199-5.7c1.268-0.533,2.434-0.8,3.5-0.8h5.7c1.4,0,2.583,0.217,3.55,0.65
	s1.917,1.133,2.851,2.1c1.3,1.267,2.017,2.8,2.149,4.6c0.033,0.966-0.149,2.816-0.55,5.55l-3.95,21.65h0.2
	c1.434,0,2.533,0.217,3.3,0.65c1.033,0.6,1.417,1.633,1.15,3.1c-0.233,1.467-0.95,2.483-2.15,3.05c-0.899,0.466-2.116,0.7-3.649,0.7
	h-3.8c-1.367,0-2.268-0.533-2.7-1.6c-0.3-0.8-0.333-1.95-0.101-3.45l4.051-23.1c0.433-2.467,0.449-4.117,0.05-4.95
	c-0.467-0.966-1.783-1.45-3.95-1.45h-2.5c-0.8,0-1.633,0.233-2.5,0.7l-12.4,6.95l-3.85,21.75c-0.267,1.567-0.717,2.75-1.35,3.55
	c-0.768,1.067-1.884,1.6-3.351,1.6s-2.399-0.533-2.8-1.6c-0.3-0.8-0.316-1.983-0.05-3.55l5.2-29.4c-1.434,0-2.533-0.2-3.301-0.6
	C1044.562,274.617,1044.18,273.567,1044.479,272.1z M973.229,252.95c2.233,0,3.633,0.3,4.2,0.9c0.666,0.7,0.816,2.133,0.449,4.3
	l-7.949,44.75h10.35c1.533,0,2.667,0.233,3.4,0.7c0.967,0.6,1.333,1.617,1.1,3.05c-0.233,1.467-1,2.5-2.3,3.1
	c-0.9,0.433-2.067,0.65-3.5,0.65h-27c-1.434,0-2.533-0.217-3.3-0.65c-1.067-0.6-1.483-1.633-1.25-3.1c0.267-1.433,1-2.45,2.199-3.05
	c0.934-0.467,2.167-0.7,3.7-0.7h9.05l7.551-42.5h-9.051c-1.467,0-2.583-0.217-3.35-0.65c-1.066-0.6-1.467-1.617-1.2-3.05
	c0.2-1.467,0.917-2.5,2.15-3.1c0.933-0.434,2.167-0.65,3.7-0.65H973.229z M1006.93,275.85c-1.434,0-2.518-0.2-3.25-0.6
	c-1.033-0.633-1.434-1.683-1.2-3.15c0.233-1.434,0.95-2.45,2.149-3.05c0.9-0.466,2.117-0.7,3.65-0.7h13.4
	c2.232,0,3.649,0.333,4.25,1c0.633,0.667,0.767,2.083,0.399,4.25l-5.25,29.3h11.15c1.5,0,2.616,0.233,3.35,0.7
	c0.967,0.6,1.333,1.617,1.101,3.05c-0.233,1.467-1,2.5-2.301,3.1c-0.899,0.433-2.066,0.65-3.5,0.65h-30.149
	c-1.434,0-2.533-0.217-3.3-0.65c-1.067-0.6-1.467-1.633-1.2-3.1c0.233-1.433,0.95-2.45,2.149-3.05c0.934-0.467,2.167-0.7,3.7-0.7
	h11.45l4.85-27.05H1006.93z M860.68,485.05h23.05l8-45.1h-23.05L860.68,485.05z M810.079,433.1c0.834-0.6,1.816-0.899,2.95-0.899
	h26.05c1.367,0,2.467,0.149,3.3,0.45c0.967,0.3,1.851,0.883,2.65,1.75c0.833,0.933,1.3,1.983,1.4,3.149
	c0.1,0.867,0.017,2.117-0.25,3.75l-2.801,16c-0.333,1.667-0.683,2.917-1.05,3.75c-0.566,1.2-1.45,2.25-2.649,3.15
	c-1.067,0.866-2.15,1.467-3.25,1.8c-0.934,0.3-2.101,0.45-3.5,0.45h-22.101l-3.3,18.6h26.95c1.133,0,2,0.3,2.6,0.9
	c0.667,0.7,0.884,1.7,0.65,3c-0.2,1.3-0.783,2.3-1.75,3c-0.767,0.6-1.733,0.899-2.9,0.899h-34.8l4.55-25.449
	c0.267-1.434,0.667-2.7,1.2-3.801c0.566-1.1,1.283-2.017,2.15-2.75c0.899-0.733,1.933-1.3,3.1-1.699c1.2-0.334,2.517-0.5,3.95-0.5
	h22.05l3.3-18.7h-27c-1.1,0-1.95-0.283-2.55-0.851c-0.7-0.699-0.917-1.699-0.65-3C808.612,434.767,809.18,433.767,810.079,433.1z
	 M860.829,439.95c0.2-1.033,0.601-2.033,1.2-3c0.566-0.934,1.283-1.75,2.15-2.45c0.833-0.733,1.767-1.3,2.8-1.7
	c1-0.399,2.033-0.6,3.1-0.6h23.101c1.066,0,2.05,0.2,2.949,0.6c0.867,0.4,1.584,0.967,2.15,1.7c0.6,0.7,1.017,1.517,1.25,2.45
	c0.233,0.967,0.25,1.967,0.05,3l-8,45.1c-0.166,1.101-0.55,2.134-1.149,3.101c-0.534,0.933-1.217,1.75-2.051,2.449
	c-0.833,0.7-1.75,1.25-2.75,1.65c-1.066,0.4-2.149,0.6-3.25,0.6h-23.05c-1.1,0-2.1-0.199-3-0.6c-0.866-0.4-1.6-0.95-2.2-1.65
	c-0.6-0.733-1-1.55-1.199-2.449c-0.233-0.967-0.267-2-0.101-3.101L860.829,439.95z M881.029,370.05l-1.95-2.05
	c-0.566-0.633-1.717-0.95-3.45-0.95h-6.899c-1.733,0-3.066,0.284-4,0.85l-2.95,1.9c-1.167,0.733-1.884,1.883-2.15,3.45l-0.949,5.3
	h21.8l0.95-5C881.729,371.783,881.596,370.617,881.029,370.05z M834.129,366.25l-4.25-14.25c-0.466-1.533-1.116-2.5-1.949-2.9
	c-0.567-0.267-1.867-0.4-3.9-0.4h-1l-8,45.1h1.5c1.6,0,2.7-0.184,3.3-0.55c0.5-0.333,1.233-1.25,2.2-2.75l9.4-12.75
	c1.8-2.433,2.767-4.133,2.899-5.1C834.763,370.283,834.696,368.15,834.129,366.25z M800.579,394.7c0.8-0.601,1.75-0.9,2.851-0.9h3.8
	l7.95-45.1h-2.851c-1.467,0-2.533-0.267-3.2-0.8c-0.866-0.633-1.166-1.65-0.899-3.05c0.233-1.333,0.85-2.333,1.85-3
	c0.9-0.6,2-0.9,3.3-0.9h13.101c1.533,0,2.866,0.15,4,0.45c1.133,0.3,2.116,0.783,2.95,1.45c0.8,0.633,1.483,1.45,2.05,2.45l1.55,3.4
	l4.5,14.85c0.5,1.733,0.8,3.2,0.9,4.4c0.166,1.433,0.083,2.983-0.25,4.65c-0.233,1.5-0.684,2.967-1.351,4.4l-2.399,4.15l-9.65,13.1
	c-0.934,1.4-1.884,2.566-2.85,3.5c-0.967,0.934-2,1.684-3.101,2.25c-1.066,0.566-2.25,0.967-3.55,1.2l-4.25,0.399h-13
	c-1.1,0-1.95-0.3-2.55-0.899c-0.667-0.667-0.884-1.667-0.65-3C799.029,396.4,799.612,395.4,800.579,394.7z M864.129,278.6
	c-1.166,0.733-1.883,1.883-2.149,3.45l-0.95,5.3h21.8l0.95-5c0.3-1.767,0.167-2.934-0.4-3.5l-1.949-2.05
	c-0.567-0.633-1.717-0.95-3.45-0.95h-6.9c-1.733,0-3.066,0.283-4,0.85L864.129,278.6z M832.079,286.85
	c-0.434-0.934-1.066-1.633-1.899-2.1c-0.9-0.5-2.017-0.75-3.351-0.75h-15.45l-3.3,18.6h12.351c1.166,0,2.399-0.2,3.699-0.6
	c1.334-0.4,2.567-0.967,3.7-1.7c1.233-0.767,2.233-1.65,3-2.65c0.834-1.1,1.351-2.25,1.55-3.45l0.4-4.15
	C832.713,288.783,832.479,287.717,832.079,286.85z M834.879,258.3c-0.899-0.533-2.017-0.8-3.35-0.8h-15.45l-3.3,18.7h12.35
	c1.167,0,2.4-0.217,3.7-0.65c1.3-0.4,2.533-0.966,3.7-1.7c1.2-0.767,2.184-1.65,2.95-2.65c0.866-1.067,1.399-2.217,1.6-3.45
	l0.351-4.1c0-1.267-0.217-2.35-0.65-3.25C836.346,259.467,835.713,258.767,834.879,258.3z M838.629,251
	c1.934,0.833,3.467,2.05,4.601,3.65c1.066,1.533,1.75,3.417,2.05,5.65c0.267,2.2,0.15,4.684-0.35,7.45
	c-0.434,2.467-1.15,4.633-2.15,6.5c-1.233,2.167-2.967,4.1-5.2,5.8c0.9,1.034,1.617,2.1,2.15,3.2c0.467,1.033,0.783,2.133,0.95,3.3
	c0.267,1.867,0.116,4.417-0.45,7.65c-0.467,2.5-1.283,4.783-2.45,6.85c-1.1,1.967-2.533,3.667-4.3,5.1
	c-1.733,1.4-3.684,2.45-5.851,3.15c-2.199,0.733-4.533,1.1-7,1.1h-14.149c-1.066,0-2.033-0.2-2.9-0.6
	c-0.899-0.4-1.649-0.966-2.25-1.7c-0.6-0.7-1-1.517-1.2-2.45c-0.267-0.967-0.316-1.983-0.149-3.05l0.149-0.55l7.95-44.55h-5.35
	c-1.101,0-1.95-0.283-2.55-0.85c-0.667-0.7-0.884-1.7-0.65-3c0.267-1.333,0.85-2.333,1.75-3c0.8-0.6,1.767-0.9,2.9-0.9h27.199
	C834.213,249.75,836.629,250.167,838.629,251z M920.329,439.95c-1.1,0-1.95-0.283-2.55-0.851c-0.667-0.699-0.884-1.699-0.65-3
	c0.2-1.333,0.767-2.333,1.7-3c0.8-0.6,1.767-0.899,2.9-0.899h19.35l-9.35,52.85h7.55l2.85-15.75c0.2-1.2,0.667-2.133,1.4-2.8
	c0.767-0.733,1.85-1.1,3.25-1.1c1.367,0,2.3,0.366,2.8,1.1c0.467,0.667,0.601,1.6,0.4,2.8l-3.5,19.65c-0.233,1.3-0.8,2.3-1.7,3
	c-0.8,0.6-1.75,0.899-2.85,0.899h-30.95c-1.101,0-1.967-0.3-2.601-0.899c-0.666-0.7-0.883-1.7-0.649-3s0.816-2.3,1.75-3
	c0.8-0.601,1.75-0.9,2.85-0.9h11.55l8-45.1H920.329z M1008.829,437.55c0.101,0.867,0.017,2.117-0.25,3.75l-2.8,16
	c-0.333,1.667-0.684,2.917-1.05,3.75c-0.567,1.2-1.45,2.25-2.65,3.15c-1.066,0.866-2.149,1.467-3.25,1.8
	c-0.933,0.3-2.1,0.45-3.5,0.45h-22.1l-3.3,18.6h26.949c1.134,0,2,0.3,2.601,0.9c0.667,0.7,0.883,1.7,0.649,3
	c-0.199,1.3-0.783,2.3-1.75,3c-0.767,0.6-1.732,0.899-2.899,0.899h-34.8l4.55-25.449c0.267-1.434,0.667-2.7,1.2-3.801
	c0.566-1.1,1.283-2.017,2.149-2.75c0.9-0.733,1.934-1.3,3.101-1.699c1.199-0.334,2.517-0.5,3.949-0.5h22.051l3.3-18.7h-27
	c-1.101,0-1.95-0.283-2.55-0.851c-0.7-0.699-0.917-1.699-0.65-3c0.233-1.333,0.8-2.333,1.7-3c0.833-0.6,1.816-0.899,2.95-0.899
	h26.05c1.366,0,2.467,0.149,3.3,0.45c0.967,0.3,1.85,0.883,2.65,1.75C1008.263,435.333,1008.729,436.384,1008.829,437.55z"/>
</svg>
