<?xml version="1.0" encoding="utf-8"?>
<!-- Generator: Adobe Illustrator 15.1.0, SVG Export Plug-In . SVG Version: 6.00 Build 0)  -->
<!DOCTYPE svg PUBLIC "-//W3C//DTD SVG 1.1//EN" "http://www.w3.org/Graphics/SVG/1.1/DTD/svg11.dtd">
<svg version="1.1" id="Layer_1" xmlns="http://www.w3.org/2000/svg" xmlns:xlink="http://www.w3.org/1999/xlink" x="0px" y="0px"
	 width="1360px" height="768px" viewBox="0 0 1360 768" enable-background="new 0 0 1360 768" xml:space="preserve">
<path fill-rule="evenodd" clip-rule="evenodd" d="M255.3,291.95c3.467-0.8,9.3-1.2,17.5-1.2h39.4c5.066,0,8.783,0.7,11.15,2.1
	c3.2,1.933,4.433,5.233,3.7,9.9c-0.867,4.633-3.4,7.933-7.6,9.9c-2.967,1.367-6.867,2.05-11.7,2.05H264.7c-4.567,0-9.684,2-15.35,6
	L231,333.75c-5.167,3.533-8.033,6.967-8.6,10.3c-0.533,3.4,1.1,6.817,4.9,10.25l10.65,10.05c4.133,3.967,8.483,5.95,13.05,5.95
	l19.4,0.25c6,0.567,9.55,2.733,10.65,6.5c0.167,0.467,0.25,0.867,0.25,1.2l0.25,1.35v0.5l-0.25,1.45v0.75
	c0,0.167-0.083,0.417-0.25,0.75l-1.3,3.5c-1.167,2.467-3.017,4.3-5.55,5.5c-2.1,1.066-4.767,1.733-8,2l-2,0.351h-14.05
	c-4.566,0-9.65,2-15.25,6l-18.5,12.949c-5.133,3.5-7.95,6.917-8.45,10.25l-2.15,11.25c-0.7,3.334,0.934,6.75,4.9,10.25l10.4,10.301
	c4.5,3.966,8.9,5.949,13.2,5.949h37.6l2.4-11.949c0.7-4.167,2.184-7.267,4.45-9.301c2.533-2.1,6.083-3.149,10.65-3.149
	c4.467,0,7.6,1.05,9.4,3.149c1.667,2.034,2.167,5.134,1.5,9.301l-4.45,24.05c-0.934,4.666-3.417,7.934-7.45,9.8
	c-2.967,1.467-6.983,2.2-12.05,2.2h-39.4c-8.1,0-13.767-0.4-17-1.2c-4.3-1.233-8.767-4.017-13.4-8.35l-15.85-14.75
	c-4.9-4.667-7.983-9.284-9.25-13.851c-1.1-4.233-0.934-10.133,0.5-17.7l0.5-3.449c1.433-7.567,3.517-13.5,6.25-17.801
	c2.867-4.5,7.633-9.066,14.3-13.699l17.6-12.351l-12.9-12.25c-4.567-4.233-7.567-8.333-9-12.3c-1.434-3.933-1.733-8.833-0.9-14.7
	c0.167-0.466,0.25-0.917,0.25-1.35l0.5-1.45v-0.5c1.434-5.3,3.5-9.733,6.2-13.3c2.8-3.667,7.033-7.5,12.7-11.5l21.25-14.8
	C244.867,295.917,250.4,293.183,255.3,291.95z M366.75,291h30.3c4.633,0,7.833,1.05,9.6,3.15c1.7,1.967,2.217,5.067,1.55,9.3
	l-13.2,72.1h74.25l13.2-72.1c0.667-4.133,2.316-7.233,4.95-9.3c2.6-2.1,6.217-3.15,10.85-3.15c4.567,0,7.783,1.05,9.65,3.15
	c1.7,1.967,2.2,5.067,1.5,9.3L478.25,473c-0.6,3.967-2.2,7.017-4.8,9.15c-2.7,2.199-6.333,3.3-10.9,3.3
	c-4.566,0-7.783-1.101-9.65-3.3c-1.667-2.034-2.217-5.084-1.65-9.15l13.3-72.35h-74.2L377.15,473
	c-0.667,3.967-2.316,7.017-4.95,9.15c-2.7,2.199-6.333,3.3-10.9,3.3c-4.533,0-7.733-1.101-9.6-3.3c-1.7-2.034-2.217-5.084-1.55-9.15
	l28.8-156.95H362.1c-3.633,0-6.467-1.017-8.5-3.05c-2.2-2.2-2.917-5.383-2.15-9.55c0.767-4.3,2.667-7.517,5.7-9.65
	C359.75,291.933,362.95,291,366.75,291z M984.85,443.75c-0.866,0-1.533-0.233-2-0.7c-0.533-0.533-0.716-1.333-0.55-2.399
	c0.167-1.067,0.634-1.867,1.4-2.4c0.6-0.467,1.35-0.7,2.25-0.7h15.45l-7.5,42.3h6.05l2.25-12.6c0.166-0.967,0.533-1.717,1.1-2.25
	c0.634-0.6,1.5-0.9,2.601-0.9c1.1,0,1.85,0.301,2.25,0.9c0.366,0.533,0.466,1.283,0.3,2.25l-2.8,15.75
	c-0.167,1.033-0.617,1.816-1.351,2.35c-0.633,0.5-1.383,0.75-2.25,0.75h-24.6c-0.9,0-1.601-0.25-2.101-0.75
	c-0.533-0.533-0.716-1.316-0.55-2.35c0.2-1.066,0.667-1.866,1.4-2.4c0.633-0.5,1.399-0.75,2.3-0.75h9.15l6.399-36.1H984.85z
	 M1054,437.9c0.767,0.233,1.467,0.699,2.1,1.399c0.634,0.733,1,1.566,1.101,2.5c0.1,0.733,0.033,1.75-0.2,3.05l-2.25,12.801
	c-0.233,1.333-0.517,2.333-0.85,3c-0.434,0.966-1.134,1.816-2.101,2.55c-0.833,0.666-1.7,1.133-2.6,1.399
	c-0.7,0.233-1.617,0.351-2.75,0.351h-17.601l-2.6,14.899h21.45c0.899,0,1.583,0.25,2.05,0.75c0.533,0.534,0.7,1.334,0.5,2.4
	c-0.167,1.033-0.617,1.816-1.35,2.35c-0.634,0.5-1.417,0.75-2.351,0.75h-27.7l3.65-20.35c0.2-1.167,0.517-2.2,0.95-3.1
	c0.467-0.867,1.033-1.601,1.7-2.2c0.732-0.566,1.566-1.017,2.5-1.351c0.933-0.267,1.982-0.399,3.149-0.399h17.55l2.601-14.95h-21.5
	c-0.867,0-1.533-0.233-2-0.7c-0.567-0.533-0.75-1.333-0.55-2.399c0.199-1.067,0.666-1.867,1.399-2.4c0.634-0.467,1.4-0.7,2.3-0.7
	h20.75C1052.417,437.55,1053.3,437.667,1054,437.9z M894.55,443.75c-0.866,0-1.533-0.233-2-0.7c-0.566-0.533-0.75-1.333-0.55-2.399
	c0.2-1.067,0.667-1.867,1.4-2.4c0.633-0.467,1.399-0.7,2.3-0.7h20.75c1.066,0,1.95,0.117,2.649,0.351
	c0.767,0.233,1.467,0.699,2.101,1.399c0.633,0.733,1,1.566,1.1,2.5c0.101,0.733,0.033,1.75-0.2,3.05l-2.25,12.801
	c-0.233,1.333-0.517,2.333-0.85,3c-0.434,0.966-1.134,1.816-2.1,2.55c-0.834,0.666-1.7,1.133-2.601,1.399
	c-0.7,0.233-1.616,0.351-2.75,0.351h-17.6l-2.601,14.899h21.45c0.9,0,1.584,0.25,2.05,0.75c0.534,0.534,0.7,1.334,0.5,2.4
	c-0.166,1.033-0.616,1.816-1.35,2.35c-0.634,0.5-1.417,0.75-2.35,0.75h-27.7l3.649-20.35c0.2-1.167,0.517-2.2,0.95-3.1
	c0.467-0.867,1.033-1.601,1.7-2.2c0.733-0.566,1.566-1.017,2.5-1.351c0.934-0.267,1.983-0.399,3.15-0.399h17.55l2.6-14.95H894.55z
	 M960.25,443.75H941.9l-6.351,36.1H953.9L960.25,443.75z M935.65,443.75c0.166-0.833,0.483-1.634,0.949-2.4
	c0.434-0.733,1-1.399,1.7-2c0.667-0.566,1.417-1,2.25-1.3c0.8-0.333,1.634-0.5,2.5-0.5H961.4c0.833,0,1.6,0.167,2.3,0.5
	c0.7,0.3,1.283,0.733,1.75,1.3c0.467,0.601,0.8,1.267,1,2c0.2,0.767,0.217,1.567,0.05,2.4l-6.35,36.1
	c-0.167,0.867-0.483,1.684-0.95,2.45c-0.434,0.767-0.983,1.434-1.65,2c-0.633,0.566-1.366,1-2.2,1.3
	c-0.833,0.334-1.683,0.5-2.55,0.5h-18.35c-0.867,0-1.65-0.166-2.351-0.5c-0.733-0.3-1.333-0.733-1.8-1.3
	c-0.467-0.6-0.783-1.267-0.95-2c-0.199-0.767-0.216-1.583-0.05-2.45L935.65,443.75z M942.95,389.45l-0.75,4.25h17.35l0.75-4
	c0.233-1.4,0.134-2.334-0.3-2.8l-1.6-1.65c-0.434-0.5-1.334-0.75-2.7-0.75h-5.5c-1.4,0-2.467,0.217-3.2,0.65l-2.3,1.5
	C943.733,387.283,943.15,388.217,942.95,389.45z M943.5,381c1.5-1.133,2.783-1.85,3.85-2.15c0.733-0.233,1.801-0.35,3.2-0.35h5.5
	c1.533,0,2.684,0.133,3.45,0.4c0.9,0.267,1.833,0.867,2.8,1.8l2.05,1.9c1.101,1.033,1.767,2.2,2,3.5
	c0.167,1.034,0.084,2.467-0.25,4.301l-0.8,4.85c-0.333,1.767-0.783,2.934-1.35,3.5c-0.667,0.6-1.851,0.9-3.55,0.9h-19.25l-0.45,2.55
	c-0.066,0.666,0.116,1.267,0.55,1.8l0.95,1.15c0.533,0.733,1.8,1.1,3.8,1.1l13.25-0.1c1.233,0,2.134,0.183,2.7,0.55
	c0.8,0.5,1.1,1.316,0.899,2.45c-0.233,1.166-0.85,2-1.85,2.5c-0.733,0.333-1.667,0.5-2.8,0.5h-14.25c-1.434,0-2.4-0.067-2.9-0.2
	c-0.7-0.2-1.416-0.667-2.149-1.4l-2.2-2.25c-1-1.1-1.634-2.1-1.9-3c-0.267-0.899-0.25-2.149,0.05-3.75l2-11.55
	c0.334-1.7,0.75-3.033,1.25-4c0.634-1.133,1.634-2.2,3-3.2L943.5,381z M910.45,369.8h-0.75l-6.4,36.101h1.2
	c1.267,0,2.15-0.15,2.65-0.45c0.366-0.233,0.949-0.95,1.75-2.15l7.449-10.25c1.434-1.967,2.217-3.316,2.351-4.05
	c0.333-1.934,0.267-3.65-0.2-5.15l-3.4-11.4c-0.366-1.267-0.883-2.05-1.55-2.35C913.116,369.9,912.083,369.8,910.45,369.8z
	 M919.6,367.05l1.2,2.75l3.601,11.9c0.399,1.367,0.633,2.533,0.699,3.5c0.134,1.133,0.084,2.366-0.149,3.7
	c-0.233,1.199-0.601,2.383-1.101,3.55l-1.899,3.35l-7.7,10.45c-0.733,1.134-1.5,2.066-2.3,2.8c-0.767,0.767-1.584,1.367-2.45,1.8
	c-0.866,0.467-1.816,0.801-2.85,1l-3.351,0.301h-10.35c-0.867,0-1.533-0.25-2-0.75c-0.533-0.5-0.717-1.284-0.55-2.351
	c0.166-1.066,0.633-1.866,1.399-2.399c0.634-0.5,1.4-0.75,2.3-0.75h3l6.351-36.101h-2.3c-1.167,0-2.017-0.216-2.551-0.65
	c-0.666-0.5-0.899-1.316-0.699-2.45c0.166-1.067,0.666-1.867,1.5-2.4c0.699-0.466,1.566-0.7,2.6-0.7h10.45
	c1.2,0,2.25,0.117,3.149,0.35c0.9,0.233,1.684,0.617,2.351,1.15C918.583,365.6,919.134,366.25,919.6,367.05z M926.2,319.55
	c-0.7-0.4-1.584-0.6-2.65-0.6h-12.3l-2.65,14.9h9.851c0.934,0,1.916-0.167,2.95-0.5c1.033-0.3,2.017-0.75,2.949-1.35
	c0.967-0.6,1.75-1.3,2.351-2.1c0.7-0.867,1.116-1.8,1.25-2.8l0.35-3.3c-0.066-1-0.25-1.85-0.55-2.55
	C927.384,320.517,926.866,319.95,926.2,319.55z M932,302.65c-0.033-1-0.2-1.85-0.5-2.55c-0.366-0.767-0.884-1.333-1.55-1.7
	c-0.7-0.433-1.601-0.65-2.7-0.65H915l-2.65,14.95h9.851c0.934,0,1.916-0.167,2.95-0.5c1.033-0.333,2-0.784,2.899-1.35
	c0.967-0.633,1.767-1.35,2.4-2.15c0.666-0.867,1.083-1.784,1.25-2.75L932,302.65z M961.05,312.45c-1.399,0-2.467,0.216-3.2,0.65
	l-2.3,1.5c-0.967,0.633-1.55,1.566-1.75,2.8l-0.75,4.25H970.4l0.75-4c0.233-1.4,0.133-2.333-0.301-2.8l-1.6-1.65
	c-0.434-0.5-1.333-0.75-2.7-0.75H961.05z M905.5,291.55h21.65c2.267,0,4.199,0.333,5.8,1c1.533,0.633,2.75,1.6,3.649,2.9
	c0.867,1.233,1.4,2.75,1.601,4.55c0.233,1.733,0.149,3.717-0.25,5.95c-0.334,1.966-0.9,3.7-1.7,5.2c-1,1.733-2.384,3.283-4.15,4.65
	c0.733,0.833,1.301,1.684,1.7,2.55c0.4,0.833,0.667,1.717,0.8,2.65c0.2,1.5,0.067,3.533-0.399,6.1
	c-0.367,2.033-1.017,3.867-1.95,5.5c-0.866,1.6-2,2.967-3.4,4.1c-1.366,1.1-2.916,1.933-4.649,2.5c-1.767,0.6-3.634,0.9-5.601,0.9
	h-11.25c-0.833,0-1.616-0.167-2.35-0.5c-0.667-0.333-1.25-0.783-1.75-1.35c-0.467-0.567-0.783-1.217-0.95-1.95
	c-0.233-0.767-0.267-1.583-0.1-2.45l6.399-36.1H904.4c-0.9,0-1.584-0.233-2.051-0.7c-0.533-0.533-0.716-1.333-0.55-2.4
	c0.233-1.066,0.7-1.867,1.4-2.4C903.833,291.783,904.6,291.55,905.5,291.55z M649.8,311.55c5.134,4.467,7.367,8.784,6.7,12.95
	c-0.434,2.6-1.617,4.8-3.55,6.6c-2.1,2.1-4.8,3.316-8.1,3.65c-3.467,0.333-7.35-1.417-11.65-5.25l-10.15-9.55
	c-3.866-3.5-8.716-5.25-14.55-5.25H589c-3.833,0-7.133,0.533-9.9,1.6c-2.367,0.9-5.2,2.567-8.5,5
	c-7.1,5.133-10.983,9.867-11.65,14.2l-1,4.75c-0.767,4.467,1.383,9.233,6.45,14.3c3.133,3,11.417,9.6,24.85,19.8
	c15.6,12.3,27.383,21.633,35.35,28c6.133,4.867,10.133,9.5,12,13.9c2.033,4.733,2.333,10.934,0.9,18.6l-1,5.75
	c-1.367,7.667-3.7,13.733-7,18.2c-2.934,4-8.283,8.733-16.05,14.2c-7.434,5.2-13.35,8.583-17.75,10.15
	c-4.467,1.533-10.684,2.3-18.65,2.3H559.2c-7.434,0-13.267-1.017-17.5-3.05c-3.2-1.567-7.833-5.233-13.9-11l-8.65-8.2l-5.2-5.601
	c-1.434-2.199-1.934-4.683-1.5-7.449c0.433-2.467,1.616-4.601,3.55-6.4c2.1-2.033,4.8-3.25,8.1-3.65
	c3.466-0.333,7.4,1.417,11.8,5.25l10,9.551c4.567,4.3,9.85,6.449,15.85,6.449h19.75c6.267,0,12.383-2.149,18.35-6.449
	c6.867-4.967,10.8-9.733,11.8-14.301l1.25-7.449c0.534-2.7,0.5-4.983-0.1-6.851c-0.833-2.2-2.783-4.684-5.85-7.45l-60.4-47.8
	c-6.267-4.966-10.333-9.566-12.2-13.8c-2.1-4.733-2.383-10.883-0.85-18.45l0.5-3.3c1.434-7.667,3.75-13.7,6.95-18.1
	c2.966-4,8.333-8.733,16.1-14.2c7.5-5.3,13.417-8.684,17.75-10.15c4.367-1.533,10.483-2.3,18.35-2.3H611
	c7.267,0,12.967,0.933,17.1,2.8c3.3,1.467,7.65,4.767,13.05,9.9L649.8,311.55z M741.6,291l26.2-0.25c4.834,0,8.267,0.65,10.3,1.95
	c2.367,1.633,3.551,4.566,3.551,8.8h0.5c1.666-4.233,4.149-7.167,7.449-8.8c2.7-1.3,6.5-1.95,11.4-1.95h20.55
	c4.566,0,7.684,0.567,9.351,1.7c1.699,1.066,3.35,3.466,4.949,7.2l6.2,15.3c1.7,4.066,2.134,8.35,1.3,12.85L817.1,473
	c-0.6,3.967-2.199,7.017-4.8,9.15c-2.7,2.199-6.333,3.3-10.899,3.3h-0.65c-4.467,0-7.583-1.101-9.35-3.3
	c-1.7-2.034-2.217-5.084-1.551-9.15l26.5-145.2l-4.949-12.1h-11.15l-9,12.1l-8.6,49c-0.767,4-2.45,7.05-5.051,9.15
	c-2.8,2.3-6.483,3.45-11.05,3.45s-7.733-1.15-9.5-3.45c-1.767-2.1-2.316-5.15-1.649-9.15l8.85-49l-4.9-12.1H748.2l-9.15,12.1
	L712.6,473c-0.767,4.066-2.416,7.116-4.949,9.15c-2.7,2.199-6.334,3.3-10.9,3.3h-0.5c-4.566,0-7.7-1.101-9.4-3.3
	c-1.666-2.034-2.166-5.084-1.5-9.15l26.45-144.25l-5.149-13.05h-9.4c-3.634,0-6.417-0.95-8.35-2.85c-2.2-2.2-2.967-5.417-2.301-9.65
	c0.767-4.233,2.667-7.45,5.7-9.65c2.7-1.867,5.917-2.8,9.65-2.8H714.1c4.834,0,8.25,0.65,10.25,1.95
	c2.367,1.633,3.551,4.566,3.551,8.8h0.5c2.199-5.133,5.5-8.317,9.899-9.55h0.25L741.6,291z M1241.55,369.8h-18.35l-6.351,36.101
	h18.351L1241.55,369.8z M1247.75,367.4c0.2,0.767,0.217,1.567,0.05,2.4l-6.35,36.101c-0.167,0.866-0.483,1.683-0.95,2.449
	c-0.434,0.767-0.983,1.434-1.65,2c-0.633,0.567-1.366,1-2.199,1.301c-0.834,0.333-1.684,0.5-2.551,0.5h-18.35
	c-0.867,0-1.65-0.167-2.35-0.5c-0.733-0.301-1.334-0.733-1.801-1.301c-0.467-0.6-0.783-1.267-0.949-2
	c-0.2-0.767-0.217-1.583-0.051-2.449l6.351-36.101c0.167-0.833,0.483-1.633,0.95-2.4c0.433-0.733,1-1.4,1.699-2
	c0.667-0.566,1.417-1,2.25-1.3c0.801-0.333,1.634-0.5,2.5-0.5h18.351c0.833,0,1.6,0.167,2.3,0.5c0.7,0.3,1.283,0.733,1.75,1.3
	C1247.217,366,1247.55,366.667,1247.75,367.4z M1199.75,363.6c0.867,0,1.667,0.15,2.4,0.45c0.699,0.3,1.283,0.733,1.75,1.3
	c0.467,0.566,0.783,1.233,0.949,2c0.167,0.767,0.184,1.583,0.051,2.45l-2.15,12c-0.233,1.333-0.583,2.434-1.05,3.3
	c-0.567,1-1.384,1.917-2.45,2.75c0.8,0.834,1.283,1.75,1.45,2.75c0.2,0.9,0.167,2-0.101,3.301l-2.1,12
	c-0.167,0.866-0.467,1.683-0.9,2.449c-0.433,0.767-0.982,1.434-1.649,2c-0.667,0.567-1.4,1-2.2,1.301
	c-0.833,0.333-1.684,0.5-2.55,0.5h-21.45c-0.9,0-1.6-0.25-2.1-0.75c-0.533-0.534-0.717-1.317-0.551-2.351
	c0.2-1.066,0.667-1.866,1.4-2.399c0.633-0.5,1.4-0.75,2.3-0.75h21.45l1.8-10.351c0.3-1.633,0.217-2.833-0.25-3.6
	c-0.399-0.634-1.066-0.95-2-0.95h-12.3c-0.867,0-1.533-0.25-2-0.75c-0.533-0.533-0.717-1.333-0.55-2.4
	c0.2-1.066,0.667-1.866,1.399-2.399c0.634-0.467,1.4-0.7,2.301-0.7h12.25c0.967,0,1.767-0.333,2.399-1
	c0.733-0.733,1.25-1.933,1.55-3.6l1.801-10.35h-21.5c-0.867,0-1.533-0.233-2-0.7c-0.533-0.533-0.717-1.333-0.551-2.4
	c0.167-1.067,0.634-1.867,1.4-2.4c0.633-0.466,1.383-0.7,2.25-0.7H1199.75z M1110.5,391h-18.35l-2.65,14.9h18.4L1110.5,391z
	 M1131.8,387.9c0.233-1.367,0.717-2.351,1.45-2.95c0.667-0.567,1.667-0.85,3-0.85h14.6c1.301,0,2.2,0.283,2.7,0.85
	c0.467,0.6,0.583,1.583,0.351,2.95c-0.233,1.399-0.717,2.383-1.45,2.949c-0.667,0.601-1.65,0.9-2.95,0.9h-14.6
	c-1.334,0-2.233-0.3-2.7-0.9C1131.7,390.283,1131.566,389.3,1131.8,387.9z M1108,369.8h-5.9l-2.6,14.95h5.9L1108,369.8z
	 M1085.9,391.05c0.166-1,0.467-1.866,0.899-2.6c0.4-0.767,0.934-1.417,1.601-1.95c0.666-0.566,1.399-0.983,2.199-1.25
	c0.834-0.333,1.717-0.5,2.65-0.5l3.2-18.05c0.167-0.867,0.55-1.583,1.149-2.15c0.667-0.633,1.518-0.95,2.551-0.95h12.1
	c1,0,1.733,0.316,2.2,0.95c0.399,0.567,0.517,1.284,0.35,2.15l-3.2,18.05c0.934,0,1.768,0.167,2.5,0.5
	c0.7,0.267,1.283,0.684,1.75,1.25c0.467,0.533,0.783,1.184,0.95,1.95c0.134,0.767,0.101,1.633-0.1,2.6L1114.1,405.9
	c-0.166,0.966-0.467,1.833-0.899,2.6c-0.4,0.767-0.917,1.417-1.55,1.95c-0.634,0.533-1.351,0.95-2.15,1.25
	c-0.833,0.3-1.733,0.45-2.7,0.45h-18.35c-0.934,0-1.783-0.15-2.55-0.45c-0.7-0.3-1.283-0.717-1.75-1.25s-0.768-1.184-0.9-1.95
	c-0.167-0.767-0.15-1.634,0.05-2.6L1085.9,391.05z M1096.65,307.2c0.533,0.566,0.633,1.7,0.3,3.4l-4.15,23.5h8.851
	c1.199,0,2.1,0.183,2.699,0.55c0.768,0.5,1.051,1.317,0.851,2.45c-0.167,1.167-0.767,2-1.8,2.5c-0.733,0.333-1.667,0.5-2.801,0.5
	h-24c-1.133,0-2-0.167-2.6-0.5c-0.867-0.5-1.2-1.333-1-2.5c0.2-1.133,0.783-1.95,1.75-2.45c0.733-0.367,1.717-0.55,2.95-0.55h9.1
	l3.851-21.65h-9.101c-1.133,0-2-0.167-2.6-0.5c-0.833-0.5-1.15-1.333-0.95-2.5c0.2-1.167,0.767-1.983,1.7-2.45
	c0.733-0.367,1.7-0.55,2.899-0.55h10.7C1095.066,306.45,1096.184,306.7,1096.65,307.2z M1117.25,307c0.733-0.367,1.7-0.55,2.9-0.55
	h3c1.232,0,2,0.466,2.3,1.4c0.233,0.667,0.217,1.667-0.05,3l-0.101,0.65v0.15l8.101-4.55c1-0.434,1.933-0.65,2.8-0.65h4.5
	c1.133,0,2.083,0.167,2.85,0.5c0.767,0.333,1.533,0.9,2.3,1.7c1,1,1.551,2.233,1.65,3.7c0.033,0.767-0.1,2.233-0.4,4.4l-3.149,17.35
	h0.149c1.134,0,2,0.167,2.601,0.5c0.833,0.5,1.149,1.333,0.95,2.5c-0.2,1.167-0.768,1.983-1.7,2.45c-0.733,0.367-1.7,0.55-2.9,0.55
	H1140c-1.1,0-1.8-0.434-2.1-1.3c-0.268-0.633-0.301-1.55-0.101-2.75l3.2-18.5c0.367-1.966,0.383-3.283,0.05-3.95
	c-0.399-0.767-1.45-1.15-3.149-1.15h-2c-0.634,0-1.301,0.183-2,0.55l-9.851,5.55L1121,336c-0.233,1.233-0.6,2.167-1.1,2.8
	c-0.601,0.867-1.483,1.3-2.65,1.3s-1.917-0.434-2.25-1.3c-0.233-0.633-0.233-1.566,0-2.8l4.1-23.55c-1.133,0-2-0.167-2.6-0.5
	c-0.833-0.5-1.15-1.333-0.95-2.5C1115.75,308.283,1116.316,307.467,1117.25,307z M1043.6,391.8c0.2-1.166,0.518-2.2,0.95-3.1
	c0.467-0.867,1.033-1.601,1.7-2.2c0.733-0.566,1.566-1.017,2.5-1.35c0.934-0.267,1.983-0.4,3.15-0.4h17.55l2.6-14.95h-21.5
	c-0.866,0-1.533-0.233-2-0.7c-0.566-0.533-0.75-1.333-0.55-2.4c0.2-1.067,0.667-1.867,1.4-2.4c0.633-0.466,1.399-0.7,2.3-0.7h20.75
	c1.066,0,1.95,0.117,2.649,0.35c0.768,0.233,1.467,0.7,2.101,1.4c0.633,0.733,1,1.566,1.1,2.5c0.101,0.733,0.033,1.75-0.2,3.05
	l-2.25,12.8c-0.232,1.333-0.517,2.333-0.85,3c-0.434,0.967-1.133,1.816-2.1,2.55c-0.834,0.667-1.7,1.134-2.601,1.4
	c-0.7,0.233-1.616,0.35-2.75,0.35h-17.6l-2.601,14.9h21.45c0.9,0,1.583,0.25,2.05,0.75c0.533,0.533,0.7,1.333,0.5,2.399
	c-0.166,1.033-0.616,1.816-1.35,2.351c-0.633,0.5-1.417,0.75-2.35,0.75h-27.7L1043.6,391.8z M978.65,392.45
	c0.3-1.9,0.783-3.384,1.449-4.45c0.7-1.1,1.851-2.25,3.45-3.45l5.15-3.65c1.467-1.1,2.767-1.783,3.899-2.05
	c0.834-0.233,2.233-0.35,4.2-0.35h9.5c1.2,0,2.101,0.183,2.7,0.55c0.8,0.467,1.1,1.284,0.9,2.45c-0.233,1.167-0.867,2-1.9,2.5
	c-0.7,0.333-1.634,0.5-2.8,0.5h-9.95c-1.134,0-2.366,0.5-3.7,1.5l-4.55,3.3c-1.267,0.9-1.967,1.75-2.1,2.55l-1.4,7.851
	c-0.134,0.866,0.267,1.717,1.2,2.55l2.35,2.4c1.066,1,2.134,1.5,3.2,1.5h11.15c1.166,0,2.05,0.166,2.649,0.5
	c0.867,0.5,1.2,1.333,1,2.5c-0.233,1.166-0.816,1.983-1.75,2.449c-0.733,0.367-1.717,0.551-2.95,0.551h-9.5
	c-1.933,0-3.283-0.101-4.05-0.301c-1.066-0.3-2.149-1-3.25-2.1l-3.8-3.65c-1.2-1.166-1.934-2.316-2.2-3.449
	c-0.3-1.067-0.267-2.551,0.101-4.45L978.65,392.45z M977.2,314.05c0.166,1.034,0.083,2.467-0.25,4.3l-0.8,4.85
	c-0.334,1.767-0.784,2.933-1.351,3.5c-0.666,0.6-1.85,0.9-3.55,0.9H952l-0.45,2.55c-0.066,0.667,0.117,1.267,0.55,1.8l0.95,1.15
	c0.533,0.733,1.8,1.1,3.8,1.1l13.25-0.1c1.233,0,2.134,0.183,2.7,0.55c0.8,0.5,1.101,1.317,0.9,2.45c-0.233,1.167-0.851,2-1.851,2.5
	c-0.733,0.333-1.666,0.5-2.8,0.5H954.8c-1.434,0-2.399-0.067-2.899-0.2c-0.7-0.2-1.417-0.667-2.15-1.4l-2.2-2.25
	c-1-1.1-1.633-2.1-1.899-3s-0.25-2.15,0.05-3.75l2-11.55c0.333-1.7,0.75-3.034,1.25-4c0.633-1.133,1.633-2.2,3-3.2l2.399-1.8
	c1.5-1.133,2.784-1.85,3.851-2.15c0.733-0.233,1.8-0.35,3.2-0.35h5.5c1.533,0,2.683,0.133,3.449,0.4
	c0.9,0.267,1.834,0.867,2.801,1.8l2.05,1.9C976.3,311.583,976.967,312.75,977.2,314.05z M1013.15,306.45h3.55
	c1.133,0,2.149,0.2,3.05,0.6c0.866,0.4,1.667,1,2.4,1.8c1.1,1.167,1.716,2.283,1.85,3.35c0.066,0.566-0.066,1.7-0.4,3.4
	c-0.199,1.3-0.533,2.267-1,2.9c-0.633,0.867-1.517,1.3-2.649,1.3c-0.967,0-1.617-0.35-1.95-1.05c-0.2-0.467-0.233-1.1-0.1-1.9
	c0.5-2.067,0.633-3.317,0.399-3.75c-0.233-0.467-0.75-0.767-1.55-0.9l-2.25-0.2h-0.5c-0.767,0-1.85,0.483-3.25,1.45l-10.15,7.35
	l-2.3,13.3h6.351c1.199,0,2.1,0.183,2.699,0.55c0.767,0.5,1.051,1.317,0.851,2.45c-0.2,1.167-0.8,2-1.8,2.5
	c-0.733,0.333-1.667,0.5-2.801,0.5H990.2c-1.134,0-2-0.167-2.601-0.5c-0.866-0.5-1.199-1.333-1-2.5c0.2-1.133,0.784-1.95,1.75-2.45
	c0.733-0.367,1.717-0.55,2.95-0.55h1l3.8-21.65c-1.166,0-2.05-0.167-2.649-0.5c-0.834-0.5-1.167-1.333-1-2.5
	c0.2-1.133,0.8-1.95,1.8-2.45c0.7-0.367,1.667-0.55,2.9-0.55h3c1.1,0,1.816,0.417,2.149,1.25c0.267,0.667,0.3,1.583,0.101,2.75
	l-0.351,2.45l8.2-5.7C1011.316,306.7,1012.283,306.45,1013.15,306.45z M1038.85,294.6c0.733-0.333,1.7-0.5,2.9-0.5h8.8
	c1.767,0,2.884,0.25,3.351,0.75c0.533,0.533,0.649,1.683,0.35,3.45l-6.3,35.8h8.2c1.232,0,2.149,0.183,2.75,0.55
	c0.767,0.5,1.05,1.317,0.85,2.45c-0.2,1.167-0.8,2-1.8,2.5c-0.733,0.333-1.667,0.5-2.8,0.5h-21.5c-1.134,0-2-0.167-2.601-0.5
	c-0.866-0.5-1.217-1.333-1.05-2.5c0.2-1.133,0.8-1.95,1.8-2.45c0.733-0.367,1.7-0.55,2.9-0.55h7.25l6-34h-7.25
	c-1.134,0-2.017-0.184-2.65-0.55c-0.833-0.466-1.149-1.283-0.95-2.45C1037.267,295.933,1037.85,295.1,1038.85,294.6z M1090.75,294.4
	c0.167-1,0.55-1.733,1.15-2.2c0.566-0.4,1.283-0.6,2.149-0.6h3.4c0.899,0,1.55,0.2,1.95,0.6c0.433,0.466,0.566,1.2,0.399,2.2
	l-0.5,2.85c-0.2,1-0.6,1.733-1.2,2.2c-0.533,0.433-1.25,0.65-2.149,0.65h-3.4c-0.899,0-1.533-0.217-1.899-0.65
	c-0.467-0.467-0.601-1.2-0.4-2.2L1090.75,294.4z"/>
</svg>
